<svg width="2560" height="1440" xmlns="http://www.w3.org/2000/svg" xml:space="preserve" enable-background="new 0 0 2560 1440" version="1.1">

 <g>
  <title>Layer 1</title>
  <path id="svg_2" d="m564.83765,902.99567c-82.98636,0.00146 -165.97309,-0.11524 -248.95853,0.15948c-9.93896,0.0329 -16.65436,-5.3905 -23.67401,-10.61029c-7.5846,-5.63983 -9.75363,-14.92859 -13.85333,-22.87042c-0.62586,-1.21234 -0.34012,-2.93707 -0.34024,-4.42481c-0.01242,-130.14526 -0.09485,-260.29071 0.16867,-390.43545c0.01837,-9.06003 4.99276,-17.06363 10.71267,-24.14823c5.7746,-7.15225 13.95731,-10.53341 22.21213,-13.69363c1.6344,-0.6257 3.49381,-0.93249 5.24973,-0.93344c82.15313,-0.04437 164.30667,-0.14743 246.45886,0.13889c7.74603,0.02697 15.31329,2.90759 21.37585,8.47259c5.65229,5.18839 11.53095,10.13769 17.0434,15.4679c2.98389,2.88525 5.20856,6.54855 8.1474,9.48953c2.79108,2.79306 6.25354,4.90973 9.0885,7.66562c5.31439,5.16626 10.34631,10.62182 15.57916,15.87387c3.12891,3.14035 6.43103,6.10745 9.62744,9.18139c2.21351,2.12867 4.55213,4.16025 6.53083,6.49311c4.19616,4.94732 7.97497,10.26245 12.33734,15.05102c3.9508,4.3368 3.54712,9.99378 5.47064,14.91309c4.02826,10.302 0.77319,21.09826 2.41894,32.21411c9.65369,0 19.43189,-0.31219 29.18061,0.08991c9.29913,0.3836 17.05169,4.48565 23.31476,11.46301c1.91711,2.13574 4.54528,4.13794 6.91827,0.72729c4.54608,-6.53412 12.13489,-8.14685 18.41132,-11.8565c1.14618,-0.67743 2.91046,-0.40705 4.38958,-0.40876c19.49677,-0.02227 38.9936,-0.01495 58.49036,-0.01495c1.79327,0 3.58649,0 5.862,0c0,-5.42572 0.29688,-10.40198 -0.06952,-15.32886c-0.55292,-7.43609 1.27106,-14.36712 3.33075,-21.37274c1.99634,-6.7904 4.86285,-13.21625 10.13788,-17.79834c4.42517,-3.84393 9.25659,-7.16577 14.80402,-9.94235c10.41076,-5.21076 20.8648,-3.30322 31.28332,-3.43155c29.3241,-0.36118 58.6742,-0.74252 87.97583,0.14429c13.82623,0.41848 25.77704,6.54535 33.7179,19.04547c6.25372,9.8443 8.93884,20.38531 8.85394,31.90887c-0.12988,17.65192 -0.03412,35.30548 -0.03412,54.26703c5.71326,-6.06433 10.5127,-11.53467 15.73712,-16.56347c3.15534,-3.03724 7.03595,-5.30787 10.47064,-8.07203c3.30139,-2.65692 6.22803,-5.82983 9.71228,-8.19775c5.86866,-3.98822 12.48316,-4.82312 19.63172,-4.78894c50.99048,0.24426 101.98266,0.13037 152.97424,0.13037c1.96448,0 3.92896,0 6.474,0c0,-2.67285 0,-4.948 0,-7.22321c0,-18.33032 -1.12512,-36.75598 0.41675,-54.95562c0.94385,-11.14121 5.54883,-22.14765 16.17358,-28.87509c3.00476,-1.90262 5.49561,-4.71991 8.64002,-6.26899c2.98449,-1.47018 6.51318,-2.55252 9.80786,-2.56665c39.65942,-0.17022 79.32385,-0.38565 118.97558,0.19419c5.78492,0.08462 12.32178,3.18374 17.06311,6.79086c6.30408,4.79605 12.28296,10.72192 14.7865,18.74475c1.50074,4.8093 2.77759,9.86426 2.99939,14.86011c0.45642,10.27933 0.13721,20.59305 0.13721,31.70669c8.89575,-6.333 18.52625,-5.34283 27.96643,-5.39422c10.3313,-0.05628 20.66541,-0.14441 30.99414,0.03003c7.8418,0.13244 15.04846,1.22351 22.13843,6.08618c13.03564,8.94043 19.84131,20.52453 19.86926,36.0899c0.08667,48.3252 0.03174,96.6507 0.03174,144.97608c0,46.02893 0.10107,92.05816 -0.07373,138.08642c-0.04175,10.99536 -4.79627,20.26233 -13.20227,28.32019c-9.94788,0.38312 -19.32544,0.38312 -29.27808,0.38312c-0.1062,-11.00885 0.28077,-22.44189 -6.70984,-32.02087c3.43238,0.14734 6.23951,0.0343 6.24292,-4.14002c0.01087,-13.59552 0.04944,-27.19098 -0.07153,-41.23718c-0.18115,-7.41876 -0.28052,-14.38727 -0.23022,-21.35474c0.08484,-11.7622 0.26464,-23.52362 0.6195,-35.60791c0.42249,-3.20605 2.31641,-6.41095 -1.81677,-8.51098c-7.14697,-0.06073 -13.83057,-0.16614 -20.47986,-0.6214c1.10047,-1.97089 1.94776,-3.8028 3.27124,-5.17572c5.06909,-5.25842 10.50537,-10.17932 15.34461,-15.63422c1.78308,-2.01001 3.14209,-5.12109 3.23291,-7.77997c0.36279,-10.61316 0.2052,-21.24658 0.09521,-31.87103c-0.01782,-1.72754 -0.7677,-3.44763 -1.04053,-5.56c0.25477,-13.35986 0.37049,-26.33081 0.64844,-39.75592c0.16089,-18.92456 0.02503,-37.3966 0.25244,-55.86419c0.05701,-4.62128 -1.00305,-6.58619 -6.03051,-6.34253c-7.96863,0.38604 -15.97889,-0.11188 -23.95118,0.23388c-2.38147,0.10321 -5.15441,1.25196 -6.94995,2.82984c-4.61096,4.05169 -8.78015,8.60705 -13.11596,12.97101c-15.33203,15.4309 -30.65992,30.86608 -46.26172,46.46746c-1.30799,1.24396 -2.34363,2.32007 -3.78601,3.22596c-0.77637,-3.42902 -1.46167,-6.68732 -1.46778,-9.94684c-0.07434,-39.1167 -0.11718,-78.23389 0.04737,-117.34998c0.01867,-4.43689 -1.31055,-5.64471 -5.65589,-5.62072c-30.12732,0.16632 -60.25598,0.08215 -90.38428,0.10406c-1.58715,0.00116 -3.17394,0.23584 -5.03942,0.38391c0,2.53821 0,4.52246 0,6.50678c0,29.96179 -0.01978,59.92364 0.01074,89.88543c0.01074,10.64612 0.1438,21.29206 0.13574,32.39087c-0.10742,58.25287 -0.12952,116.05286 -0.19617,174.35669c-0.08081,10.39765 -0.21789,20.29303 -0.05444,30.18353c0.02759,1.66626 1.35339,3.3111 1.91187,5.2627c-14.9281,9.578 -16.71277,24.50891 -16.81409,40.34833c-8.72192,0 -16.85718,0.21869 -24.97595,-0.05243c-11.53638,-0.38513 -22.67176,0.26654 -31.34095,9.43432c-8.06237,-7.68036 -17.48693,-9.62701 -27.61853,-9.38281c-0.33276,0.008 -0.66626,-0.01092 -0.99853,0.00263c-17.64929,0.71832 -35.28687,0.51904 -52.95032,0.12579c-23.29089,-0.51843 -46.60217,-0.09064 -69.90429,-0.16815c-3.4712,-0.01154 -6.94044,-0.56214 -10.55555,-1.16919c-6.1228,-6.23694 -12.05713,-12.21308 -18.0982,-18.0791c-2.80536,-2.72406 -5.81848,-5.23426 -9.30976,-8.3526c-1.62927,11.12725 -5.42059,19.72076 -12.8302,26.81457c-7.7893,3.80206 -15.20269,7.52716 -23.07812,11.18421c-5.15686,-0.02265 -9.85156,0.02276 -14.9176,-0.00287c-1.58173,-0.50421 -3.09778,-0.61341 -3.9549,-1.42151c-7.53869,-7.10803 -16.62268,-9.1402 -26.67023,-8.99329c-15.64483,0.22882 -31.29541,0.06757 -46.9436,0.05798c-11.61285,-0.00714 -23.40118,-1.13171 -33.9317,5.54798c-0.50671,0.32141 -1.29828,0.19391 -2.22223,0.06079c-6.10175,-2.29895 -10.34955,-6.30573 -13.81079,-11.77331c0.17047,-11.99457 -3.66754,-22.23212 -10.18946,-32.03418c0.06812,-29.01246 0.06812,-57.56043 0.06812,-86.20234c-4.57257,0 -8.61444,0 -12.88702,0c0,24.42456 0,48.51276 -0.23749,72.83533c-1.55573,-0.42157 -3.15296,-0.79535 -4.1474,-1.77862c-7.21747,-7.13697 -14.00806,-14.73713 -21.54974,-21.50416c-5.47712,-4.91455 -11.8971,-8.77838 -17.89429,-13.34588c-0.14081,-0.66071 -0.28388,-1.08631 -0.3009,-1.96802c0.16369,-21.68475 0.17871,-42.91333 0.25714,-64.14178c0.01648,-4.46222 0.26629,-8.92359 0.83429,-13.39624c20.67926,-0.01941 40.93316,-0.08063 61.1864,0.01025c3.84509,0.01727 5.88177,-1.02332 5.8089,-5.32324c-0.21643,-12.77808 -0.19178,-25.56024 -0.28211,-38.77027c-0.01092,-20.71624 -0.11584,-41.00415 0.1015,-61.28869c0.04584,-4.27204 -0.94989,-5.72772 -5.49347,-5.66394c-18.78656,0.26367 -37.58062,0.24749 -56.36785,0.01092c-4.50293,-0.0567 -6.02418,1.09595 -5.95972,5.78156c0.24688,17.95532 0.09814,35.9162 0.06531,53.875c-0.00336,1.84503 -0.21894,3.6897 -0.38318,6.27765c-2.52844,-1.75568 -4.12397,-2.86347 -5.81793,-4.19019c-0.28895,-0.49591 -0.54706,-0.67572 -0.95698,-1.07879c-1.70422,-1.7801 -3.32446,-3.23957 -5.04443,-4.91834c-0.29413,-0.4931 -0.55359,-0.67371 -0.9599,-1.08423c-2.03509,-2.10705 -3.9884,-3.89081 -5.94134,-5.67517c0.00024,-0.00061 -0.00086,-0.00006 -0.08033,-0.32349c-2.02777,-2.10479 -3.97607,-3.88616 -5.92187,-5.6723c0.00244,-0.00482 -0.00727,0 -0.08502,-0.29315c-0.67237,-0.79651 -1.26691,-1.29987 -1.87323,-1.76819c-0.01166,0.03504 0.05432,0.00171 -0.05878,-0.30273c-1.40363,-1.41376 -2.69409,-2.52313 -3.9826,-3.63666c0.00207,-0.00409 -0.00641,0.00024 -0.10651,-0.3161c-2.02875,-2.11041 -3.95734,-3.90448 -5.88873,-5.69324c-0.00269,0.00525 0.00897,-0.00079 -0.10828,-0.31067c-2.04273,-2.10748 -3.9682,-3.90515 -5.99378,-5.92242c-0.29492,-0.49414 -0.55487,-0.67511 -0.96057,-1.08624c-2.03088,-2.11329 -3.98108,-3.90278 -5.93689,-5.68384c-0.00561,0.00842 0.01221,0.0003 -0.0653,-0.32422c-2.0304,-2.10657 -3.98334,-3.88855 -5.93702,-5.66895c-0.00085,0.00159 0.00232,-0.00006 -0.08984,-0.31988c-2.03058,-2.10828 -3.96911,-3.89667 -5.9093,-5.68183c-0.00171,0.0033 0.00506,-0.00018 -0.09595,-0.32653c-2.88733,-2.06806 -5.57562,-5.0893 -8.47827,-5.31159c-8.71033,-0.66724 -17.50568,-0.31726 -26.2641,-0.15753c-1.25262,0.02277 -2.48437,1.18811 -3.81402,2.28381c-0.10578,62.42249 -0.1233,124.38574 -0.61792,186.41974c-11.2685,0.03076 -22.05982,-0.00915 -32.83191,-0.5083c0.35809,-7.74994 0.96386,-15.03967 0.9898,-22.33148c0.11237,-31.61426 0.07563,-63.22919 0.03064,-94.84381c-0.00476,-3.35706 -1.10748,-6.24921 -5.1336,-7.40991c-6.4336,-6.44196 -12.58008,-12.71198 -18.48151,-19.27143c5.45251,-0.70385 10.65344,-1.28241 15.8692,-1.48944c5.96863,-0.23694 6.67523,-0.75397 6.81519,-6.50348c0.33484,-13.76104 0.83764,-27.52075 0.95679,-41.28369c0.16522,-19.10571 0.07867,-38.21417 -0.0254,-57.3208c-0.00897,-1.63916 -0.95636,-3.27313 -1.73046,-5.14795c-21.31079,-21.32208 -42.38617,-42.3789 -63.36969,-63.52685c-2.38355,-2.40219 -4.79969,-3.51267 -8.27832,-3.50821c-75.27814,0.09637 -150.55646,0.07049 -225.83475,0.08844c-1.73984,0.00042 -3.47962,0.23483 -5.52774,0.38232c0,2.07691 0,3.55551 0,5.03415c0.00003,55.79254 -0.00196,111.58508 0.01089,167.37763c0.00034,1.49163 0.16138,2.98327 0.15286,4.92755c-0.11224,53.27533 -0.12994,106.09808 -0.1911,159.42041c-0.07873,12.64599 0.08655,24.79797 -0.2474,36.93621c-0.13495,4.90631 1.60504,6.16986 6.31225,6.16242c78.87323,-0.12555 157.74674,-0.09613 236.69126,0.36352c0.0238,14.49103 -0.0235,28.5174 -0.0708,42.54377m397.97955,-86.94373c-0.09656,-0.39856 -0.19312,-0.79712 -0.13941,-2.10284c0.01398,-20.13996 0.05848,-40.27997 0.03406,-60.41986c-0.02838,-23.46527 -0.11706,-46.93049 0.07868,-71.00898c-0.50647,-0.63226 -1.01294,-1.26452 -1.87018,-2.44805c-6.68933,-6.93189 -13.3786,-13.86377 -19.7254,-21.54108c1.6502,-0.50702 3.28155,-1.36078 4.9544,-1.45197c3.98041,-0.21673 7.98859,-0.2326 11.97016,-0.02801c3.70196,0.19024 4.97638,-1.32056 4.9256,-4.96436c-0.17872,-12.80505 -0.13837,-25.6131 -0.3144,-39.30713c-0.06762,-21.2146 -0.13525,-42.4292 0.04322,-64.28375c-0.61182,-0.44128 -1.22364,-0.88257 -2.75147,-1.49267c-18.32587,-0.01569 -36.65173,-0.06965 -54.97754,-0.03449c-13.98602,0.02679 -27.97174,0.1665 -42.74884,0.31842c-0.34143,1.87952 -0.9577,3.75574 -0.98034,5.63916c-0.16486,13.69141 -0.21015,27.38416 -0.75989,41.7597c-0.18183,1.47278 -0.52747,2.94617 -0.5221,4.41828c0.30616,84.78308 0.64148,169.56616 0.97473,254.34918c0.00196,0.49976 0.01825,0.99957 0.02399,1.49933c0.03974,3.45532 1.61121,5.08453 5.24023,5.07696c30.49219,-0.06372 60.98475,-0.07122 91.47681,0.00898c3.88971,0.01019 5.33319,-1.55365 5.2843,-5.36957c-0.16241,-12.66064 -0.14318,-25.32367 -0.21661,-38.61725m269.84637,-135.48309c-0.08313,-20.48365 -0.2517,-40.96753 -0.17517,-61.45056c0.01477,-3.96479 -1.29797,-5.15595 -5.20141,-5.07325c-10.82166,0.22925 -21.65149,0.05072 -32.47791,0.08539c-19.98059,0.06409 -39.96118,0.16528 -60.84533,0.06507c-21.98426,-0.01606 -43.96924,-0.10755 -65.95191,0.06829c-2.20386,0.01764 -4.95081,1.09308 -6.50781,2.62854c-20.83692,20.54847 -41.5517,41.22193 -62.133,62.02643c-1.65295,1.6709 -2.953,4.52539 -2.97595,6.84412c-0.20886,21.14929 -0.0979,42.30182 -0.22412,64.49249c-0.05322,12.98956 -0.22913,25.98096 -0.03272,38.9668c0.03083,2.04193 1.27936,4.52325 2.75763,6.01666c20.50476,20.71411 41.10767,41.33185 61.83692,61.82117c1.58386,1.56549 4.29736,2.81116 6.48987,2.8175c53.13012,0.15509 106.26086,0.10138 159.39148,0.15772c4.37024,0.00464 6.36303,-1.66883 6.42675,-6.18006c0.19702,-13.96344 0.78467,-27.9223 0.90625,-41.88568c0.16541,-18.98565 0.07654,-37.97406 -0.02343,-56.96069c-0.00879,-1.66058 -0.9076,-3.31653 -2.19507,-5.38477c-1.97449,-0.1632 -3.94873,-0.46734 -5.92334,-0.46869c-40.64673,-0.02764 -81.29358,-0.02087 -121.94031,-0.02087c-1.9248,0 -3.84961,0 -5.90015,0c0,-8.53009 0,-16.32654 0.94178,-24.12689c32.26806,-0.00092 64.53613,-0.00159 96.80419,-0.00281c10.3125,-0.00043 20.62549,-0.06152 30.93726,0.02576c3.99585,0.03381 6.39307,-1.30988 6.34815,-5.69672c-0.1294,-12.63611 -0.20191,-25.27277 -0.33265,-38.76495z" fill="#0147E9"/>
  <path id="svg_3" d="m760.25165,804.7793c5.99957,4.33233 12.41955,8.19616 17.89667,13.11071c7.54168,6.76703 14.33227,14.36719 21.54974,21.50416c0.99444,0.98327 2.59167,1.35705 4.42316,1.97705c4.57971,4.52038 8.64617,9.07672 12.71258,13.63311c6.58997,9.33753 10.42798,19.57508 10.2005,32.03461c0.01453,8.64215 0.01453,16.39649 0.01453,24.15088c0.51758,0.22052 1.03521,0.44098 1.55279,0.6615c4.18848,-4.42981 8.37696,-8.85968 12.56549,-13.28943c0.65894,-0.08148 1.45051,0.04602 1.95722,-0.27539c10.53052,-6.67969 22.31885,-5.55512 33.9317,-5.54798c15.64819,0.00959 31.29877,0.17084 46.9436,-0.05798c10.04755,-0.14691 19.13154,1.88526 26.67023,8.99329c0.85712,0.8081 2.37317,0.9173 4.10559,1.71936c3.37677,3.54736 6.23157,6.72601 9.21729,10.05035c2.29626,-3.9256 4.15393,-7.1015 6.01166,-10.27728c7.41339,-3.7251 14.82678,-7.4502 23.08105,-11.19531c13.86664,-0.05799 26.89233,-0.09601 39.91809,-0.13404c3.47021,0.30127 6.93945,0.85187 10.41065,0.86341c23.30212,0.07751 46.6134,-0.35028 69.90429,0.16815c17.66345,0.39325 35.30103,0.59253 52.95032,-0.12579c0.33227,-0.01355 0.66577,0.00537 0.99853,-0.00263c10.1316,-0.2442 19.55616,1.70245 27.61853,9.38281c8.66919,-9.16778 19.80457,-9.81945 31.34095,-9.43432c8.11877,0.27112 16.25403,0.05243 24.97595,0.05243c0.10132,-15.83942 1.88599,-30.77033 17.15686,-40.40357c6.59448,-1.64697 12.62756,-3.60296 18.77527,-4.07947c8.90442,-0.69018 17.89184,-0.3103 27.30603,-0.29199c7.25732,0.10804 14.05517,0.0069 20.84692,0.1662c6.93543,0.16272 13.86255,0.7229 20.79761,0.82977c3.65137,0.05628 7.31177,-0.48364 11.43091,-0.6986c22.07861,-0.01508 43.69482,-0.00916 65.30969,-0.18787c11.53491,-0.0954 21.6322,3.06055 29.50684,11.89221c7.3938,9.5752 7.00683,21.00824 7.11303,32.01709c9.95264,0 19.3302,0 29.12879,-0.07361c6.20337,-0.07361 11.98571,-0.07361 18.42676,-0.07361c0,-5.69409 0.13549,-10.97607 -0.02991,-16.24859c-0.29114,-9.28125 10.02978,-22.36292 18.62329,-25.73047c7.33325,-2.87372 14.75134,-3.06195 23.06128,-2.50861c15.2633,0.41742 29.80835,0.48224 44.81409,0.63025c8.20202,0.84632 15.94335,1.60938 23.89294,2.63233c1.0166,0.56646 1.82483,0.87304 2.85242,1.44696c3.36743,2.84082 6.51526,5.4143 9.73425,8.33551c7.38208,9.69995 6.55078,20.91626 6.79834,32.34558c2.2522,0 4.04016,0 5.82812,0c14.31324,0.00006 28.62647,0.0246 42.9397,-0.0091c8.57349,-0.0202 16.94482,0.71125 24.521,5.34223c1.05847,0.64697 2.52014,0.63428 3.97009,1.22851c3.56811,4.58606 6.96155,8.87067 10.61523,13.48389c1.125,-1.07501 2.47767,-2.4259 3.89197,-3.7088c5.64856,-5.12378 10.68701,-10.7301 17.8219,-14.34967c6.23242,-3.16174 12.42688,-2.20093 19.08667,-2.81592c4.06494,0.32642 7.70923,0.77698 11.35571,0.79462c16.49854,0.08001 32.99793,0.07452 49.49671,0.02362c8.19495,-0.02533 15.27234,2.71814 21.55859,7.91772c1.43408,1.1861 3.42688,1.69684 5.31311,2.81635c1.84131,2.04071 3.47522,3.8432 5.23255,5.51599c8.10022,7.71057 16.23486,15.38501 24.63672,23.3371c0.95324,-1.12439 2.38879,-3.10535 4.10998,-4.79529c5.7959,-5.69092 11.80713,-11.16681 17.49353,-16.96283c2.14783,-2.18927 3.63477,-5.02686 5.42102,-7.53949c-0.00195,0.02942 -0.06054,0.02313 0.30469,0.10406c0.82959,-0.45941 1.29394,-0.99969 2.06055,-1.70587c2.30774,-0.85998 4.31726,-1.54254 6.31787,-2.25036c5.56225,-1.96808 11.04138,-5.33057 16.69629,-5.65589c15.56237,-0.89514 31.19836,-0.64252 46.80444,-0.59631c8.24255,0.02441 15.57825,2.81714 21.89404,8.30072c1.2489,1.08429 3.23267,1.32202 4.87757,1.95013c4.38781,4.79248 8.66125,9.69629 13.1914,14.35022c6.22705,6.39728 12.72913,12.52674 18.95764,18.92261c4.07178,4.18128 8.54663,8.2088 11.58204,13.08832c2.6665,4.28686 4.99975,9.64941 5.04736,14.56061c0.39477,40.65991 0.47949,81.328 0.05371,121.98718c-0.11499,10.98669 -6.33106,18.88769 -16.23389,24.37036c-5.94385,3.29077 -11.8435,3.73303 -18.14953,3.54968c-9.1167,-0.26477 -18.46119,0.56092 -27.27051,-1.23132c-6.12109,-1.24536 -11.97546,-5.50952 -17.09509,-9.51611c-5.72193,-4.47779 -10.50098,-10.16663 -15.6388,-15.3794c-1.1261,-1.14258 -2.03406,-2.50012 -2.82385,-3.48572c-6.349,6.06946 -12.49378,12.04126 -18.74768,17.89649c-7.01404,6.56677 -14.32727,12.39331 -24.87659,11.78955c-6.47827,-0.37097 -12.99512,-0.0686 -19.49463,-0.0686c-46.63659,0 -93.27331,-0.01453 -139.90991,0.01477c-7.42456,0.00463 -13.27368,-3.2627 -18.42334,-8.271c-4.65796,-4.52991 -9.39905,-8.97424 -13.69116,-13.0636c-4.07459,5.15173 -7.21826,10.70056 -11.81934,14.47095c-4.04663,3.31628 -9.70019,6.48975 -14.68567,6.55481c-39.99023,0.52246 -79.99218,0.48584 -119.9862,0.13757c-8.58093,-0.07458 -15.57068,-5.26111 -21.55396,-11.17346c-3.21936,-3.18103 -5.84131,-6.9668 -8.56506,-10.27564c-4.55103,5.48597 -7.76685,9.79126 -11.43286,13.67103c-4.42908,4.68762 -9.98804,7.84423 -16.53137,7.86718c-38.66333,0.13562 -77.32789,-0.02478 -115.99109,0.13013c-9.99549,0.04004 -17.60767,-4.401 -24.36231,-11.09595c-2.78308,-2.75842 -5.53882,-5.54553 -8.36401,-8.26013c-2.0315,-1.9519 -3.45996,-1.47998 -4.1731,1.23645c-2.23193,8.5011 -17.35022,18.45154 -26.28027,18.24561c-23.98547,-0.55359 -47.99231,-0.15259 -71.99048,-0.21192c-7.01355,-0.01733 -12.38977,-3.61657 -17.50561,-8.08313c-9.151,-7.98938 -11.62207,-18.15332 -11.32703,-29.80005c0.38806,-15.32238 0.11121,-30.66198 0.0719,-45.99426c-0.00415,-1.65649 -0.32886,-3.31213 -0.50501,-4.96826c-0.57226,-0.01526 -1.14453,-0.03064 -1.71679,-0.0459c-0.25183,1.71448 -0.71717,3.42822 -0.72229,5.14343c-0.05347,17.99854 0.06482,35.99805 -0.06787,53.99573c-0.08912,12.08276 -6.1764,20.29663 -16.57532,26.22192c-5.52161,3.14624 -11.03699,3.62244 -17.01392,3.59315c-20.83117,-0.10193 -41.66345,-0.03943 -62.49524,-0.03943c-15.73303,0 -31.46948,-0.19764 -47.19787,0.0697c-10.42151,0.177 -17.92029,-4.797 -24.71704,-11.97022c-6.00794,-6.3407 -12.45643,-12.26391 -18.20667,-17.87951c-8.29846,7.96081 -15.646,15.9812 -24.04919,22.67651c-4.46045,3.55395 -10.69788,4.95569 -16.25092,7.01062c-1.61255,0.5968 -3.63251,0.0929 -5.4657,0.0929c-52.06384,0 -104.12787,-0.05677 -156.19146,0.04943c-9.91535,0.02027 -17.16602,-4.86316 -23.54419,-11.60156c-3.00885,-3.17883 -5.6178,-6.7362 -8.52271,-10.26123c-4.41424,5.47278 -7.59924,9.72534 -11.10626,13.69324c-4.48157,5.07055 -10.42853,7.94104 -17.04205,8.0133c-24.32868,0.26539 -48.66797,0.4198 -72.99085,-0.04077c-10.52441,-0.19934 -18.82556,-5.47815 -24.80829,-14.47278c-3.94983,-5.93811 -4.90521,-12.27453 -4.83838,-19.15429c0.16034,-16.4972 0.05188,-32.9972 0.05188,-49.49597c0,-1.72413 0,-3.44825 0,-5.17237c-0.53308,-0.04028 -1.06616,-0.08056 -1.59924,-0.12085c-0.13409,1.62952 -0.38135,3.25891 -0.38464,4.8888c-0.03015,14.83227 0.30603,29.6748 -0.16168,44.49231c-0.21637,6.85461 -1.02863,13.9945 -3.28608,20.40063c-2.58929,7.34741 -8.38983,12.34924 -15.77691,15.89673c-6.98945,3.35645 -14.0373,2.84863 -21.20575,2.86682c-20.66504,0.05237 -41.33209,-0.14416 -61.99481,0.08203c-11.49305,0.12586 -27.80909,-13.62158 -27.72712,-28.15515c0.33002,-58.49389 0.13691,-116.99084 0.1341,-175.48663c-0.00006,-2.16541 -0.03089,-4.33081 -0.10419,-6.961c-0.00952,-14.49115 0.03778,-28.51752 0.08343,-43.47186c0.00641,-5.72321 0.17017,-10.52436 -0.01019,-15.3125c-0.36481,-9.68726 -0.05975,-19.20038 5.67792,-27.92072c4.7984,-5.89075 10.26886,-10.48907 17.52301,-11.94195c5.73468,-1.14856 11.65887,-1.35077 17.9884,-1.90345c6.90076,0.02832 13.31202,-0.01306 19.72327,-0.05438c10.79132,0.03986 21.58264,0.07977 33.302,0.11188c32.94757,0.12304 64.9671,0.25397 97.14136,0.6889c1.41247,0.57703 2.67023,0.84998 3.92798,1.12293m855.67254,96.28662c0.00831,-5.32392 0.05225,-10.64813 0.01331,-15.97174c-0.03015,-4.11682 -1.57324,-6.24219 -6.29687,-6.18335c-18.2992,0.22815 -36.60486,0.24151 -54.90345,-0.00867c-4.80053,-0.06561 -6.04626,1.73535 -5.82239,6.13056c0.28736,5.64263 0.08277,11.31036 0.08008,17.74389c0.0232,0.77734 0.04627,1.55463 -0.01489,3.25257c-0.02075,42.66137 -0.0957,85.32299 0.07666,127.98351c0.01001,2.47547 1.44067,5.51197 3.2019,7.32252c12.31531,12.66027 24.79786,25.16357 37.48682,37.4486c1.90137,1.84082 5.1565,3.20606 7.79517,3.2229c33.6615,0.21375 67.32507,0.08753 100.98742,0.21216c3.98682,0.01465 5.62073,-1.00635 5.60755,-5.27978c-0.03992,-12.823 0.30639,-25.6471 0.68567,-39.47766c-0.03235,-6.49085 0.03772,-12.98438 -0.13282,-19.47156c-0.11303,-4.29468 -2.01513,-6.16638 -6.85644,-6.12006c-27.32092,0.26105 -54.64563,0.13397 -82.06128,-0.79419c0.02856,-5.39374 0.05713,-10.78753 1.04749,-16.1419c12.63989,0.01104 25.28039,0.08911 37.9187,-0.04316c1.77893,-0.01861 3.54699,-1.06555 5.83154,-2.08508c14.14111,-14.268 28.28223,-28.53601 42.45105,-43.74097c-0.00989,-5.81884 -0.01709,-11.63775 -0.0304,-17.4566c-0.01831,-8.05981 -0.50891,-8.57294 -8.39062,-8.57605c-26.26843,-0.01044 -52.53699,-0.01019 -78.86426,-0.94952c-0.01623,-5.55433 -0.03247,-11.10859 0.09509,-17.51697c0.01917,-0.85431 0.03846,-1.70862 0.09497,-3.49945m-265.88891,2.99109c-0.32129,-7.12299 -0.68726,-14.24433 -0.94129,-21.36969c-0.09973,-2.79358 -1.5072,-3.7002 -4.13244,-3.69409c-19.28967,0.04467 -38.57935,0.04382 -57.86902,0.00042c-2.59985,-0.00586 -4.11243,0.84314 -4.16687,3.65802c-0.14771,7.61463 -0.35242,15.22821 -0.49964,23.63391c0.15625,8.48578 0.43921,16.97138 0.44776,25.45728c0.04614,45.63293 0.02283,91.26593 0.02808,136.89886c0.00036,3.16419 0.12585,6.33118 0.03149,9.49195c-0.09045,3.02697 1.29028,4.05444 4.2279,4.04345c19.31885,-0.07202 38.63807,-0.07531 57.95691,0.00159c2.99378,0.01196 4.1659,-1.08679 4.13697,-4.09143c-0.05152,-5.32397 0.16418,-10.65063 0.82617,-16.4458c0.28918,-1.09754 0.82751,-2.19446 0.83044,-3.29273c0.05213,-19.80981 0.06751,-39.61981 -0.02014,-59.42932c-0.00598,-1.34643 -0.89001,-2.68902 -1.48035,-4.68109c-0.06897,-0.43304 -0.13806,-0.86603 0.18213,-2.00519c0.06458,-5.94494 0.26123,-11.89227 0.15332,-17.8341c-0.09106,-5.01203 -2.20007,-9.00293 -6.09338,-12.42115c-4.20679,-3.69348 -7.82336,-8.0592 -10.7655,-12.22344c3.81787,-0.04011 7.63562,-0.10938 11.45349,-0.11164c3.44507,-0.00201 5.06714,-1.38251 4.95032,-5.11218c-0.17102,-5.46643 0.13122,-10.94769 0.78588,-16.88971c-0.01086,-7.54932 -0.02172,-15.09857 -0.04223,-23.58392m-89.54834,88.56311c0.16333,-14.193 0.32666,-28.38593 0.53064,-43.52069c-0.00342,-6.83045 -0.13953,-13.66431 0.03979,-20.48993c0.1062,-4.04633 -1.41076,-5.68866 -5.54675,-5.62879c-11.32605,0.164 -22.65784,0.16553 -33.98389,-0.0011c-4.12842,-0.06079 -5.52844,1.5655 -5.57714,5.60944c-0.12818,10.63843 -0.58655,21.27313 -0.95276,31.90796c-0.04297,1.24847 -0.33155,2.48859 -0.65467,4.78882c-1.98596,-1.75537 -3.34448,-2.83618 -4.56604,-4.05414c-11.44323,-11.4101 -22.94385,-22.76483 -34.23254,-34.32636c-2.80359,-2.87127 -5.71472,-4.23315 -9.69214,-3.92419c-3.31213,0.25726 -6.66211,0.13745 -9.99109,0.03918c-4.1477,-0.12255 -6.07324,1.5268 -5.93066,5.92682c0.22644,6.98926 0.04358,13.99183 0.01929,21.93403c-0.00208,41.66021 0.0841,83.32098 -0.11939,124.98004c-0.02515,5.13244 1.50427,6.47607 6.50354,6.39721c17.9928,-0.28369 35.99536,-0.27929 53.98828,-0.00219c4.9552,0.07629 6.59326,-1.17347 6.55078,-6.36426c-0.22082,-26.99268 -0.04968,-53.98847 0.94922,-80.9513c12.28125,0.00885 24.56299,0.08185 36.8429,-0.04364c1.80944,-0.01849 3.60937,-0.97729 5.82263,-2.27691m-442.73285,1.26318c0.01568,13.32495 -0.12579,26.65357 0.18652,39.97156c0.05878,2.50452 1.31684,5.5603 3.05933,7.35303c12.4201,12.77807 25.02545,25.38098 37.81006,37.79419c1.78723,1.73535 4.87146,2.99902 7.36377,3.01342c33.81122,0.19556 67.62414,0.06324 101.43579,0.2179c4.29309,0.01965 5.35302,-1.52368 5.29382,-5.51135c-0.19031,-12.82215 -0.06964,-25.64905 0.03534,-39.45081c0.01361,-6.14148 0.0437,-12.28308 0.0365,-18.42456c-0.008,-6.83563 -0.02283,-6.84021 -6.89441,-6.85291c-27.22241,-0.05023 -54.44476,-0.09735 -81.8034,-0.98724c0.17553,-5.38568 0.35107,-10.77136 1.49688,-16.09235c27.09729,0.01758 54.1947,0.06214 81.29169,-0.02191c1.4483,-0.00445 2.89319,-1.09247 4.06335,-2.35955c-0.55359,-1.09198 -1.10717,-2.18397 -1.01422,-3.87415c0.19629,-7.22076 0.57111,-14.44458 0.44428,-21.65967c-0.02655,-1.5155 -1.69947,-3.19336 -2.95008,-4.46582c-10.17993,-10.35828 -20.34301,-20.73688 -30.72277,-30.89307c-4.18427,-4.09417 -8.02302,-8.77624 -14.9878,-8.68328c-17.63232,0.23547 -35.27429,-0.12629 -52.90155,0.25378c-3.49231,0.07526 -7.79596,1.49286 -10.25836,3.83441c-12.89667,12.263 -25.32788,25.01593 -37.89545,37.6239c-0.92596,0.92896 -2.31549,2.02826 -2.36395,3.09919c-0.37909,8.38354 -0.48297,16.77954 -0.72534,26.11529m1085.50885,0.37463c-0.01355,27.49897 -0.02722,54.99793 -0.0387,82.49683c-0.00036,0.6665 -0.23852,1.53735 0.08911,1.96082c0.95289,1.23046 2.08631,3.18603 3.23914,3.25085c5.81409,0.32666 11.6615,0.26209 17.48633,0.04443c1.30017,-0.0487 2.8125,-1.00891 3.79455,-1.98486c12.75293,-12.67285 25.50623,-25.34765 38.06214,-38.21484c2.82141,-2.89148 4.61633,-3.29615 7.61108,-0.19837c9.38062,9.70349 19.70496,18.57324 28.40271,28.83484c7.9635,9.39551 16.896,13.844 29.01538,11.70789c0.32349,-0.05701 0.67029,-0.04627 0.99805,-0.00379c3.67566,0.47547 4.96033,-1.07031 4.94177,-4.80236c-0.13977,-27.99805 -0.11426,-55.99707 -0.00647,-84.9856c0.04065,-6.65424 0.3468,-13.32318 -0.01941,-19.95496c-0.13135,-2.37829 -1.32763,-5.21038 -2.98608,-6.91009c-12.78113,-13.09882 -25.6936,-26.07514 -38.84363,-38.80188c-2.03699,-1.97132 -5.46142,-3.40082 -8.29822,-3.49756c-11.4674,-0.39093 -22.95922,-0.30664 -34.43359,-0.03717c-2.22046,0.05212 -4.9325,1.17993 -6.51929,2.73077c-13.20703,12.90845 -26.28149,25.95642 -39.17444,39.17829c-1.80212,1.84802 -3.25329,4.82116 -3.3944,7.35559c-0.38795,6.95709 0.00805,13.95776 0.07397,21.83117m-23.25745,-3.17535c-0.00183,-6.65826 0.30347,-13.33777 -0.15454,-19.96448c-0.18616,-2.69262 -1.38696,-5.89471 -3.22827,-7.79931c-11.7998,-12.20465 -23.76367,-24.26209 -36.03467,-35.99012c-2.38879,-2.28302 -6.33948,-4.03527 -9.61181,-4.10693c-17.96863,-0.39319 -35.95057,-0.20276 -53.92786,-0.17627c-4.49109,0.00665 -8.25659,1.40503 -11.52978,4.84632c-7.56897,7.95788 -15.47303,15.59741 -23.24256,23.3645c-17.31189,17.30676 -17.31225,17.30639 -16.17419,42.86065c-0.01831,13.16101 -0.18225,26.32489 0.07934,39.48035c0.047,2.35681 1.28235,5.23413 2.93531,6.92847c12.67993,12.99719 25.5155,25.84729 38.5404,38.49804c1.78552,1.73414 4.87842,2.98035 7.37439,2.99488c33.48547,0.19482 66.97302,0.03296 100.45837,0.23632c4.98182,0.03016 6.35962,-1.79138 6.29566,-6.37927c-0.1742,-12.49243 -0.0658,-24.98877 0.07983,-38.48096c0.04199,-5.80981 0.12244,-11.61962 0.1167,-17.42938c-0.00769,-7.60095 -0.38306,-7.96801 -7.77624,-7.97003c-27.06299,-0.00738 -54.1261,-0.00549 -81.29029,-0.93762c-0.02356,-3.33234 -0.06616,-6.66461 -0.06726,-9.99695c-0.00244,-7.20563 0.00635,-7.21631 6.99243,-7.21777c24.82886,-0.00513 49.65796,0.03698 74.48621,-0.081c1.8866,-0.00897 3.76807,-1.13287 5.67883,-2.67944m-884.95276,-40.92944c-0.03747,37.65533 -0.0758,75.31061 -0.11145,112.966c-0.00476,4.99866 0.12128,10.0011 -0.03723,14.99463c-0.09686,3.05347 1.12787,4.16296 4.10993,4.06372c4.32727,-0.14404 8.67462,-0.22571 12.9917,0.03076c3.62597,0.21533 6.24872,-0.98755 8.79913,-3.5841c12.02551,-12.24329 24.35571,-24.18897 36.28979,-36.51905c3.4574,-3.57202 5.50953,-3.22644 8.76087,0.15638c9.46533,9.84838 19.83777,18.88122 28.74316,29.1936c7.30493,8.45874 15.2992,12.23022 26.41761,10.84936c6.8551,-0.85144 6.99011,-0.1665 6.99816,-7.37475c0.04651,-41.65528 0.06751,-83.31055 0.5177,-125.66223c-0.16198,-7.27759 -0.36962,-14.55463 -0.46618,-21.83307c-0.04724,-3.56781 -2.05286,-4.42743 -5.19031,-4.4245c-41.11694,0.03802 -82.23389,0.052 -123.35077,-0.02173c-3.55115,-0.00635 -4.64978,1.46258 -4.56293,4.79749c0.18634,7.15277 0.14685,14.31127 0.09082,22.36749m442.94251,-46.01447c0.00842,-6.80884 -0.0813,-13.61975 0.06689,-20.42554c0.073,-3.35241 -1.09423,-4.77215 -4.60424,-4.75317c-18.93164,0.1023 -37.86438,0.11926 -56.79566,-0.01233c-3.86792,-0.02692 -4.81604,1.66931 -4.73413,5.13306c0.16467,6.97125 0.06323,13.94873 -0.06116,21.85309c-0.02978,42.81274 -0.10083,85.62567 0.02881,128.43792c0.00659,2.2013 1.19055,4.92554 2.74109,6.5127c12.68848,12.98743 25.53918,25.81848 38.5094,38.5249c1.48413,1.45398 4.00354,2.6128 6.04749,2.62024c35.6488,0.1272 71.29833,0.0531 107.62207,-0.32056c0.07568,-3.89953 0.15136,-7.79919 0.16833,-12.63598c0.01734,-10.02612 0.03467,-20.05237 0.49854,-30.7655c-0.15711,-6.25757 -0.34339,-12.51441 -0.46399,-18.77271c-0.1449,-7.52136 -0.12073,-7.52802 -7.49744,-7.54071c-27.04858,-0.04663 -54.09705,-0.08868 -81.28162,-1.03888c0.15491,-5.39496 0.30982,-10.78986 1.4491,-16.0827c12.62756,0.03082 25.25562,0.10986 37.88245,0.02899c1.50854,-0.00964 3.01147,-0.89001 5.07763,-1.79309c12.90918,-12.75098 25.8357,-25.48438 38.70386,-38.27643c1.50733,-1.49823 2.69373,-3.31946 4.32739,-5.61963c-0.22192,-6.23328 -0.48144,-12.46558 -0.65588,-18.70013c-0.20886,-7.46417 -0.17737,-7.46839 -7.526,-7.48255c-26.38232,-0.05078 -52.76477,-0.09906 -79.27124,-1.0603c-0.09204,-5.62622 -0.18408,-11.2525 -0.23169,-17.83069m-659.11365,45.62232c4.15131,-0.15125 8.30176,-0.34137 12.45435,-0.43958c2.60211,-0.06158 3.9566,-1.07465 3.92425,-3.8985c-0.15802,-13.79895 -0.2218,-27.599 0.06391,-41.99682c-0.09815,-6.30658 -0.43048,-12.62128 -0.21155,-18.91687c0.14471,-4.15943 -1.11237,-7.18738 -4.11762,-10.11811c-11.68023,-11.39013 -23.27771,-22.87512 -34.57605,-34.64154c-4.04846,-4.21612 -8.41241,-5.81268 -14.13397,-5.79553c-45.78393,0.13721 -91.56842,0.07629 -137.35278,0.0777c-1.33179,0.00006 -2.66364,0.01672 -3.99542,0.02765c-3.51331,0.02881 -5.0669,1.71631 -4.96668,5.30413c0.19507,6.98609 0.17755,13.97803 0.14618,21.85804c-0.03326,72.15765 -0.03839,144.31543 -0.17316,216.4729c-0.00775,4.13574 1.95252,4.5105 5.22522,4.49499c18.49756,-0.08728 36.99787,-0.19531 55.49225,0.06287c4.83454,0.0675 6.2486,-1.4115 6.21039,-6.20544c-0.20166,-25.32898 0.01532,-50.66102 -0.177,-75.99012c-0.03559,-4.69165 1.18549,-6.3938 6.12237,-6.32165c17.99415,0.26318 35.99671,0.25744 53.99103,0.00207c4.8479,-0.06878 6.23944,1.45996 6.20178,6.24274c-0.20086,25.49554 -0.0097,50.99408 -0.16125,76.4903c-0.02533,4.25842 1.10437,5.83154 5.62085,5.77429c18.32837,-0.23255 36.66345,-0.24353 54.99139,0.00464c4.69043,0.06347 5.90869,-1.50025 5.87836,-5.99549c-0.17664,-26.1626 -0.07715,-52.32696 -0.10712,-78.49072c-0.00207,-1.81989 -0.29663,-3.63947 -0.31744,-6.44306c0.03644,-6.45196 0.39587,-12.9262 -0.04553,-19.34527c-0.18335,-2.66589 -1.55109,-5.6582 -3.29767,-7.72785c-4.25208,-5.03863 -9.04083,-9.62445 -12.68909,-14.48577z" fill="#922600"/>
  <path id="svg_4" d="m1603.00952,847.89691c-14.54504,-0.06482 -29.09009,-0.12964 -43.89477,-0.55206c-0.21155,-2.52142 -0.12098,-4.68518 -0.12085,-6.849c0.00683,-120.82062 -0.09851,-241.64148 0.1864,-362.46143c0.02539,-10.76431 4.30969,-20.40252 12.38916,-28.60482c6.1095,-6.20227 13.44385,-9.23282 20.92273,-12.50806c1.58032,-0.69211 3.48901,-0.88245 5.24695,-0.8848c36.49621,-0.04861 72.99743,-0.35235 109.484,0.23923c7.00147,0.11346 14.79676,2.43128 20.72351,6.13553c9.865,6.16568 15.71326,16.29791 19.80689,27.18313c0.5,1.32938 0.23804,2.96552 0.23852,4.45954c0.01063,30.33014 0.00794,60.66031 0.00794,90.99045c0,1.80041 0,3.60077 0,5.66986c4.34314,0 8.2782,0 13,0c0,-1.65363 0,-3.4021 0,-5.15064c0,-28.99694 -0.57422,-58.01068 0.27466,-86.98276c0.35376,-12.07681 5.5,-23.71884 14.83594,-31.70669c8.40612,-7.19232 18.64734,-11.18097 30.51489,-11.0289c34.15747,0.43781 68.3241,0.14853 102.48718,0.15872c8.87232,0.00266 16.17725,3.84256 23.37427,8.71289c4.66992,3.1601 7.50305,7.3924 10.86279,11.59397c4.14258,5.18051 4.6615,11.09899 5.52918,16.93185c1.42859,9.6029 2.0896,19.31998 3.12756,29.51178c0.68945,0.04755 2.12268,0.23157 3.55627,0.2326c24.33082,0.0177 48.66187,-0.05429 72.99195,0.08585c3.59326,0.02066 5.17053,-0.81448 5.87182,-4.66382c1.22474,-6.72235 5.2981,-11.96454 10.72461,-16.05832c4.18994,-3.16092 8.27027,-6.57058 12.82422,-9.10672c2.71216,-1.51025 6.23828,-2.10977 9.41065,-2.14944c16.32885,-0.20438 32.66699,0.14517 48.9917,-0.19315c8.52807,-0.17676 15.12719,4.10144 20.75415,9.08872c9.83105,8.7135 18.63549,18.58511 27.73535,27.83444c3.87549,-7.61252 6.87719,-15.1951 11.38135,-21.74481c2.85302,-4.14862 8.06665,-6.6192 12.00561,-10.08777c7.62036,-6.71057 16.82593,-4.86356 25.64185,-4.95865c12.33081,-0.13309 24.69311,0.48169 36.98559,-0.21521c8.15845,-0.46249 14.54248,3.56653 19.78369,7.862c10.146,8.3154 18.82178,18.41226 28.22241,27.65378c9.3689,9.21084 18.97901,18.17758 28.29273,27.44314c6.39185,6.35889 13.23389,12.48859 18.44189,19.74842c4.83082,6.73352 8.6045,14.09558 8.57349,23.41674c-0.3186,96.48877 -0.198,192.97901 -0.19092,289.46888c0.00049,6.19171 -1.59106,11.68585 -6.04882,16.29486c-2.25074,2.32696 -3.58301,5.6098 -5.98902,7.70434c-4.39355,3.82526 -9.06689,7.43543 -14.04346,10.44007c-2.49438,1.50586 -5.9104,2.05267 -8.91284,2.06274c-38.82886,0.13074 -77.66162,0.38513 -116.48584,-0.06628c-14.69653,-0.1709 -29.36694,0.55639 -44.06006,0.22632c-14.82421,-0.33314 -29.66186,-0.07343 -44.49365,-0.07343c-14.99829,0 -30.03686,0.65454 -44.979,-0.26166c-8.10791,-0.49707 -16.04932,0.05908 -24.07056,0.22528c-8.32922,0.17267 -16.66418,0.05628 -25.46106,0.13422c-2.10925,-0.56006 -4.09302,-0.79779 -5.34192,-1.88208c-6.31579,-5.48358 -13.65149,-8.27631 -21.89404,-8.30072c-15.60608,-0.04621 -31.24207,-0.29883 -46.80444,0.59631c-5.65491,0.32532 -11.13404,3.68781 -16.69629,5.65589c-2.00061,0.70782 -4.01013,1.39038 -6.61768,2.42541c-1.10998,0.71051 -1.61792,1.0802 -2.12597,1.44989c0,0 0.05859,0.00629 -0.41089,-0.0191c-19.17054,0.03064 -37.87183,0.08655 -56.573,0.14252c-1.7356,-0.82154 -3.7284,-1.33228 -5.16248,-2.51838c-6.28625,-5.19958 -13.36364,-7.94305 -21.55859,-7.91772c-16.49878,0.0509 -32.99817,0.05639 -49.49671,-0.02362c-3.64648,-0.01764 -7.29077,-0.4682 -11.49462,-1.09503c-9.41663,-10.03327 -14.30457,-21.27149 -14.292,-34.51447c0.02662,-27.78571 0.00806,-55.57147 0.00806,-83.35718c0,-1.77508 0,-3.55011 0,-5.3941c-4.61572,0 -8.6593,0 -13,0c0,2.14837 0,3.95856 0,5.76874c0,28.61761 0.0918,57.2359 -0.09033,85.85235c-0.0304,4.78986 -0.3346,9.95758 -2.14722,14.26233c-2.36316,5.61194 -5.8147,11.01001 -9.8208,15.60895c-3.25427,3.73572 -8.01624,6.15796 -12.1095,9.16278c-1.27502,-0.29272 -2.73669,-0.28003 -3.79516,-0.927c-7.57618,-4.63098 -15.94751,-5.36243 -24.521,-5.34223c-14.31323,0.0337 -28.62646,0.00916 -42.9397,0.0091c-1.78796,0 -3.57592,0 -5.82812,0c-0.24756,-11.42932 0.58374,-22.64563 -6.32215,-32.36401c19.88355,-0.36939 39.36194,-0.38782 58.84034,-0.36017c3.09179,0.00439 5.76758,-0.2652 5.7146,-4.35804c-0.17041,-13.14147 -0.30127,-26.28344 -0.48474,-39.83721c-0.03614,-18.5514 -0.07105,-36.69098 -0.02112,-54.8302c0.03308,-11.97303 0.18811,-23.94581 0.77295,-35.93506c33.56396,-0.02149 66.64343,-0.02649 99.84643,0.42211c0.16004,20.53083 0.23535,40.60822 0.21655,60.68543c-0.00891,9.61432 -0.19592,19.22846 -0.47119,29.01709c-0.05664,0.75073 0.05579,1.32703 0.16553,2.3667c-0.00256,12.59924 0.05884,24.7356 -0.03992,36.87061c-0.02917,3.58276 0.91504,5.62878 5.00989,5.6184c30.75489,-0.07763 61.51026,-0.06134 92.26538,-0.02026c3.38587,0.00452 4.80078,-1.47174 4.76819,-4.81873c-0.12634,-12.9638 -0.16382,-25.9284 -0.28857,-39.31482c0.02038,-53.58245 0.12683,-106.74286 0.16113,-159.90326c0.03674,-56.99603 -0.04761,-113.99224 0.10461,-170.98788c0.01221,-4.56073 -1.48315,-5.53796 -5.72814,-5.5148c-29.66382,0.16196 -59.32874,0.08377 -88.99341,0.08612c-7.20203,0.00058 -7.20508,0.00684 -7.21265,7.40518c-0.04309,42.32938 -0.08447,84.65879 -0.58801,127.04001c-33.48511,0.04486 -66.50879,0.0379 -99.59375,-0.43713c-0.09864,-43.09925 -0.16699,-85.73053 -0.11804,-128.36167c0.00427,-3.66736 -0.29517,-5.77447 -4.95862,-5.74533c-30.8075,0.19269 -61.6167,0.07965 -92.4253,0.16431c-1.35424,0.00372 -2.70593,0.96289 -4.12964,1.93411c-0.08251,110.55588 -0.09521,220.65463 -0.09655,330.75339c0,1.49566 0.14367,2.99127 -0.0636,4.81537c-0.54541,2.09344 -1.07214,3.86584 -1.02344,5.62231c0.23255,8.38361 0.62134,16.763 0.95459,25.14386m438.80042,-235.85748c-0.01514,-19.77625 0.01806,-39.55292 -0.12549,-59.32819c-0.01331,-1.83856 -1.14807,-3.66894 -2.67066,-5.70257c-32.75744,0 -65.51477,0 -98.36645,0c-0.2229,1.1911 -0.44458,1.82147 -0.44409,2.45166c0.03051,36.47809 0.07934,72.95611 -0.05713,110.36841c0.00549,52.22534 0.01098,104.45068 -0.06043,157.68139c-0.02685,12.47357 0.06067,24.94898 -0.14685,37.41956c-0.0664,3.98749 1.46277,5.1427 5.27942,5.12933c30.4364,-0.10675 60.87354,-0.091 91.31006,-0.02142c3.68225,0.00836 5.55493,-1.12458 5.50281,-5.13043c-0.17102,-13.13605 -0.15625,-26.27448 -0.42761,-40.2641c-0.0232,-41.98603 -0.13257,-83.97236 0.04125,-125.95752c0.02125,-5.14063 -1.57116,-8.70185 -5.25671,-12.14789c-5.80078,-5.42352 -11.09033,-11.39392 -16.25329,-17.9046c1.63403,-0.54096 3.24462,-1.44074 4.90686,-1.5495c3.64624,-0.23834 7.33313,-0.28247 10.97668,-0.02558c4.62879,0.32648 6.11938,-1.65655 6.04395,-6.14471c-0.21253,-12.64588 -0.09656,-25.2973 -0.25232,-38.87384m33.25134,205.69086c-0.02051,11.63537 -0.05347,23.27069 -0.05664,34.90606c-0.00195,7.2038 0.14746,7.35767 7.17578,7.35987c29.08887,0.00909 58.17798,0.00402 87.26685,0.0025c0.99731,-0.00006 2.20385,0.33557 2.9458,-0.10449c1.33496,-0.79187 3.3623,-2.00824 3.4143,-3.12598c0.57276,-12.26032 0.8523,-24.53522 1.09595,-36.80853c0.021,-1.04419 -0.78369,-2.1048 -1.0437,-4.05939c0.07593,-1.16046 0.21802,-2.32098 0.21826,-3.48151c0.01148,-55.45147 0.0127,-110.90289 -0.00513,-166.35437c-0.00048,-1.31848 -0.23144,-2.6369 -0.06274,-4.8684c0.02002,-18.96912 0.11694,-37.93891 -0.05029,-56.90638c-0.01807,-2.06262 -1.03784,-4.63092 -2.47876,-6.08905c-20.68775,-20.93286 -41.51245,-41.73065 -62.37427,-62.49072c-1.08472,-1.07947 -2.78833,-2.15155 -4.21655,-2.16913c-7.63306,-0.09369 -15.27002,0.14911 -23.78907,0.00446c-2.45532,0 -4.91088,0 -7.96264,0c0,2.49933 0,4.45446 0,6.40954c0,96.48432 -0.00074,192.96863 0.00805,289.45295c0.00025,1.82867 0.12037,3.65728 -0.08422,6.07055c0.01733,0.42883 0.03466,0.85773 -0.00098,2.25202m134.35205,-280.99195c-0.14111,1.64966 -0.40503,3.29926 -0.40552,4.94898c-0.02319,89.1607 -0.02954,178.32147 0.00782,267.48217c0.00097,1.94648 0.52709,3.8927 1.104,6.38996c0.07642,0.40729 0.15259,0.81457 -0.33569,1.88617c-0.00147,12.25281 0.11767,24.50732 -0.0625,36.75751c-0.07325,5.00238 2.2583,5.91406 6.7478,5.8869c28.9812,-0.17591 57.96411,-0.08881 86.94629,-0.09082c7.62524,-0.00055 8.28393,-0.37873 8.47851,-8.06067c0.26148,-10.3205 0.12769,-20.65265 0.02832,-30.97852c-0.01367,-1.38934 -0.81567,-2.77105 -1.09912,-5.0589c0.07154,-1.16101 0.20606,-2.32196 0.20606,-3.48297c0.01074,-55.44934 0.01196,-110.89868 -0.00464,-166.34802c-0.00049,-1.32007 -0.21485,-2.6402 -0.05518,-4.87732c0.02149,-18.96326 0.12061,-37.92712 -0.04736,-56.88879c-0.01807,-2.06342 -1.05981,-4.62922 -2.50684,-6.09144c-19.40576,-19.60912 -39.14819,-38.88867 -58.36181,-58.68212c-4.6399,-4.77979 -9.25489,-6.63794 -15.70337,-6.2414c-7.90161,0.48584 -15.85547,0.11579 -24.54151,0.11579c0,8.05346 0,15.33453 -0.39526,23.33349z" fill="#0147E9"/>
  <path id="svg_5" d="m2171,466c-34.99756,0 -69.49634,-0.1593 -103.9917,0.12412c-7.59766,0.06243 -13.29272,-5.31104 -13.20557,-12.90037c0.43287,-37.65899 0.19556,-75.32568 0.19849,-112.98965c0.00049,-8.15121 3.14014,-11.23312 11.43774,-11.23328c74.82789,-0.0014 149.65577,-0.00192 224.48365,0.00077c7.83301,0.0003 11.07495,3.24884 11.07568,11.09411c0.00366,37.66397 0.00195,75.32791 0.00122,112.99188c0,8.79438 -4.26001,12.90217 -13.50781,12.90586c-38.66382,0.0155 -77.32788,0.00656 -116.4917,0.00656z" fill="#004EFF"/>
  <path id="svg_6" d="m207,992c0,-14.33075 0.31786,-28.17218 -0.14311,-41.98755c-0.20941,-6.27631 3.09198,-9.6253 10.49572,-10.98395c0.96752,-0.17749 1.9952,-0.02832 2.99502,-0.02832c56.82278,-0.00018 113.64559,-0.00213 170.46838,0.00153c9.74298,0.00067 13.18396,3.46057 13.18399,13.21326c0.00006,28.66131 0.00406,57.32269 -0.00275,85.98401c-0.0018,7.49633 -3.32537,10.79809 -10.86712,10.7987c-58.48914,0.00415 -116.97831,0.00488 -175.46746,-0.0011c-7.18148,-0.00073 -10.65113,-3.41919 -10.65805,-10.50488c-0.01495,-15.33057 -0.00461,-30.66113 -0.00462,-46.4917z" fill="#004EFF"/>
  <path id="svg_7" d="m214,356.01721c0.00027,-3.66055 -0.07835,-6.82705 0.01833,-9.98819c0.1669,-5.4581 4.51237,-9.98822 9.94651,-9.99585c41.96579,-0.05887 83.93171,-0.05587 125.89749,-0.00485c5.67753,0.0069 10.09879,4.56976 10.11481,10.327c0.05707,20.48318 0.0596,40.96673 -0.00284,61.44986c-0.01651,5.41336 -3.91329,9.17236 -9.44156,9.1766c-42.29891,0.03244 -84.59783,0.03073 -126.89675,0.00302c-5.80176,-0.00378 -9.61737,-4.01767 -9.62674,-10.0122c-0.02631,-16.81961 -0.00922,-33.63926 -0.00925,-50.95539z" fill="#004EFF"/>
  <path id="svg_8" d="m464,1109c-13.33231,0 -26.16467,0.02307 -38.99689,-0.00977c-6.41256,-0.01635 -9.98715,-3.65661 -9.99545,-10.16003c-0.02228,-17.49854 -0.01916,-34.99719 -0.00174,-52.49573c0.00668,-6.7091 3.7962,-10.30713 10.97089,-10.32275c16.83191,-0.03662 33.66394,-0.01172 50.49594,-0.01172c19.33178,0 38.66354,-0.00928 57.99533,0.00476c7.44366,0.00537 11.52972,4.04187 11.531,11.33228c0.00299,16.99865 0.00818,33.99731 -0.0025,50.99597c-0.00451,7.18518 -3.41742,10.65869 -10.50226,10.66247c-23.66476,0.01233 -47.32956,0.00452 -71.49432,0.00452z" fill="#004EFF"/>
  <path id="svg_9" d="m2242,964.99567c0,4.16308 0.00952,7.82751 -0.0022,11.492c-0.01806,5.68311 -3.71704,9.48139 -9.50415,9.49365c-21.65381,0.0459 -43.30737,0.04474 -64.96118,0.00074c-5.75049,-0.01172 -9.47925,-3.81879 -9.51782,-9.61463c-0.05542,-8.328 0.21606,-16.66473 -0.0791,-24.98266c-0.29981,-8.44941 3.8872,-12.11579 11.71728,-12.25733c20.48096,-0.37024 40.97363,-0.21478 61.46045,-0.07757c7.11255,0.04766 10.88306,4.28948 10.88623,11.45556c0.0022,4.66388 0.00049,9.32776 0.00049,14.49024z" fill="#004EFF"/>
  <path id="svg_10" d="m605.66754,802.84021c-5.84003,0.62244 -11.76422,0.82465 -17.4989,1.97321c-7.25415,1.45288 -12.72461,6.0512 -18.01886,11.89569c-40.5788,0.14282 -80.42532,0.13305 -120.27185,0.10278c-2.3143,-0.00177 -4.62851,-0.16925 -6.9527,-0.70038c-0.00537,-22.5274 -0.00076,-44.61395 0.46256,-66.82233c5.45678,-0.13433 10.4548,-0.15655 15.45285,-0.15777c20.15939,-0.00476 40.31924,-0.07422 60.47772,0.0628c3.5683,0.02423 5.1637,-0.81884 4.95587,-4.71014c-0.34601,-6.47559 -0.26062,-12.97418 -0.24469,-19.92169c0.14087,-12.25452 0.17816,-24.05042 0.19519,-35.84632c0.00995,-6.92614 -0.00451,-6.91992 -7.06647,-6.93585c-25.07812,-0.05664 -50.15621,-0.11786 -75.13052,-0.5603c0.4165,-6.14722 0.87985,-11.90826 1.00107,-17.67651c0.13043,-6.20868 -0.20322,-6.44739 -6.44834,-6.44812c-38.04748,-0.00464 -76.09497,0.0119 -114.14245,0.02142c-0.08606,-1.49164 -0.2471,-2.98328 -0.24744,-4.47491c-0.01285,-55.79255 -0.01086,-111.58509 -0.01089,-167.37763c0,-1.47864 0,-2.95724 0,-5.03415c2.04812,-0.14749 3.7879,-0.3819 5.52774,-0.38232c75.27829,-0.01795 150.55661,0.00793 225.83475,-0.08844c3.47863,-0.00446 5.89477,1.10602 8.27832,3.50821c20.98352,21.14795 42.0589,42.20477 63.28601,63.98401c0.16131,20.99969 0.04327,41.30456 0.20886,61.60723c0.03393,4.16834 -1.29303,5.40296 -5.40955,5.34467c-14.97577,-0.21198 -29.95636,-0.08325 -44.93512,-0.08307c-5.09314,0.00006 -10.18621,0 -15.27936,0c-0.22082,0.38818 -0.44158,0.77631 -0.66235,1.16449c4.14551,4.15375 8.26465,8.33429 12.44165,12.45612c10.51581,10.37683 21.0578,20.72723 31.58924,31.08825c6.14642,6.26996 12.2929,12.53998 18.8161,19.33521c1.32074,2.89453 3.07232,5.25903 3.0866,7.63385c0.18677,31.10913 0.18317,62.22003 0.01398,93.32934c-0.01196,2.20099 -1.19427,4.84583 -2.6933,6.50763c-5.33734,5.91651 -11.04699,11.49719 -16.61572,17.20502m-81.52502,-213.72754c0.02862,-12.31061 -0.09821,-24.62469 0.17145,-36.92999c0.09252,-4.22595 -1.37836,-5.3515 -5.43781,-5.30969c-17.79977,0.18353 -35.60251,0.07757 -53.40415,0.07763c-12.64416,0 -25.28836,0.01343 -37.93246,-0.00824c-2.29254,-0.0039 -4.43069,-0.03582 -4.3902,3.20166c0.16632,13.29151 0.28534,26.58368 0.14014,40.7713c0,7.59516 0,15.19025 0,23.22522c2.51981,0 4.32709,0 6.13437,0c14.15805,0 28.31613,0.00025 42.47418,-0.00006c15.82373,-0.00036 31.64838,-0.0935 47.47043,0.0683c3.59753,0.03674 5.12231,-0.84875 4.90979,-4.71997c-0.35535,-6.47314 -0.26459,-12.9707 -0.13574,-20.37616z" fill="#BCD0FF"/>
  <path id="svg_11" d="m996.31476,749.21625c-0.01758,-21.15155 -0.12854,-42.30408 0.08032,-63.45337c0.02295,-2.31873 1.323,-5.17322 2.97595,-6.84412c20.5813,-20.8045 41.29608,-41.47796 62.133,-62.02643c1.557,-1.53546 4.30395,-2.6109 6.50781,-2.62854c21.98267,-0.17584 43.96765,-0.08435 66.39185,0.46875c0.49243,5.85566 0.1737,11.21497 0.75097,16.47596c0.29651,2.70306 1.54505,6.03863 3.53174,7.6278c2.34314,1.87433 5.94275,2.99152 9.01013,3.0188c25.76697,0.22888 51.5376,0.24353 77.30481,0.0351c4.85071,-0.03919 6.32385,1.49688 6.16883,6.26105c-0.36194,11.12646 -0.23987,22.26873 -0.76539,33.49365c-44.4508,0.08905 -88.45019,0.08905 -132.43994,0.08905c0,15.02807 0,29.15283 0,43.27759c0,7.79638 0,15.59283 0,24.12292c2.05054,0 3.97535,0 5.90015,0c40.64673,0 81.29358,-0.00677 121.94031,0.02087c1.97461,0.00135 3.94885,0.30549 6.21057,1.12537c0.2782,20.6347 0.11023,40.61481 0.37268,60.5893c0.06482,4.93219 -1.521,6.05389 -6.22656,6.03961c-52.27588,-0.15833 -104.55249,-0.1446 -156.82837,-0.00891c-3.87781,0.01013 -6.49463,-1.29798 -9.11316,-3.9245c-21.24561,-21.30939 -42.59088,-42.51953 -63.9057,-63.75995z" fill="#FDFEFF"/>
  <path id="svg_12" d="m1369.11585,646.40643c1.03564,-1.07611 2.07128,-2.15222 3.80896,-3.41851c2.99719,-0.45667 5.29186,-0.95026 7.58752,-0.95484c27.0365,-0.05402 54.07324,-0.06256 81.10962,0.01593c2.25696,0.00653 4.51196,0.72974 6.76782,1.11994c-0.11572,12.97094 -0.23144,25.94189 -0.79578,39.42327c-7.92785,8.06879 -14.84106,16.32422 -23.04675,22.98804c-8.08826,6.56842 -11.08911,14.00122 -9.94385,24.09253c0.7179,6.32629 0.13355,12.80048 0.13355,19.16864c4.63684,0 8.43286,0 12.22876,0c6.68371,0.10547 13.36731,0.21088 20.6372,0.68359c0.88367,3.05201 1.18128,5.73676 1.47889,8.42151c-0.1399,11.76178 -0.3197,23.5232 -0.40454,35.2854c-0.0503,6.96747 0.04907,13.93598 -0.04786,21.63062c-1.8186,1.13013 -3.5072,1.88159 -5.19775,1.8855c-30.54101,0.07122 -61.08215,0.06433 -91.62329,0.01831c-1.60669,-0.00238 -3.21265,-0.50025 -4.73755,-1.22974c-0.04175,-7.1524 -0.16504,-13.84271 -0.13525,-20.97974c0.0553,-14.14856 -0.04273,-27.8504 -0.0188,-41.87365c-0.89929,-0.1117 -1.92041,0.09802 -3.26465,0.40051c-20.57971,20.28076 -40.81921,40.48627 -61.13269,60.61713c-1.33606,1.32403 -3.22376,2.93384 -4.87647,2.95837c-10.47631,0.15558 -20.95861,-0.09802 -31.43896,-0.21661c0.02209,-57.80005 0.04419,-115.60004 0.59192,-173.86377c31.84473,-0.5 63.16382,-0.51764 94.48279,-0.60413c2.85449,-0.00787 4.94946,0.45282 5.09753,3.8999c0.00928,0.21601 1.78552,0.35627 2.73963,0.5318z" fill="#FDFEFF"/>
  <path id="svg_13" d="m962.53223,683.13355c0.06256,23.4652 0.15124,46.93042 0.17962,70.39569c0.02442,20.13989 -0.02008,40.2799 -0.36731,60.92169c-0.71093,1.05719 -1.08862,1.61255 -1.92218,2.23816c-26.73327,0.01532 -53.01068,-0.03974 -79.31067,-0.53748c-0.09606,-2.76965 -0.23321,-5.09668 -0.23364,-7.42371c-0.0119,-66.91961 -0.00512,-133.83923 -0.01636,-200.75884c-0.00152,-9.3396 -3.81598,-13.42981 -13.18975,-13.74933c-3.28345,-0.11194 -4.84754,-0.9596 -4.8014,-4.55292c0.18146,-14.14594 0.16175,-28.2945 0.21674,-42.44208c13.9859,-0.08948 27.97162,-0.22919 41.95764,-0.25598c18.32581,-0.03516 36.65167,0.0188 55.46301,0.39197c0.99695,0.83008 1.50843,1.30261 2.0199,1.77514c0.06763,21.2146 0.13526,42.4292 -0.18164,64.18812c-22.21948,0.54431 -44.05438,0.54431 -65.88934,0.54431c-0.3208,0.68847 -0.64154,1.37695 -0.96234,2.06543c4.5332,4.13067 9.16461,8.15942 13.58007,12.41235c10.64631,10.25439 21.19172,20.61359 31.77784,30.93048c6.68933,6.93189 13.3786,13.86377 20.203,21.37714c0.58234,1.21423 1.0296,1.84704 1.47681,2.47986z" fill="#FEFFFF"/>
  <path id="svg_14" d="m322.34344,657.56934c38.14206,-0.46216 76.18955,-0.4787 114.23703,-0.47406c6.24512,0.00073 6.57877,0.23944 6.44834,6.44812c-0.12122,5.76825 -0.58457,11.52929 -1.46057,17.742c-5.37235,0.46173 -10.19553,0.27954 -14.98066,0.62488c-1.20437,0.08691 -3.27011,1.85669 -3.27661,2.86395c-0.08715,13.4112 0.12204,26.82434 0.10202,40.68109c-0.18646,6.8888 -0.12802,13.33582 -0.28903,19.77729c-0.07294,2.91906 0.83695,4.14221 3.95319,4.04492c5.27743,-0.16468 10.56726,0.06787 15.8519,0.13342c-0.00458,22.08661 -0.00919,44.17316 -0.46012,66.79492c-39.23175,0.55762 -78.01709,0.58276 -116.80246,0.58899c-1.15689,0.00018 -2.31378,-0.19867 -3.47067,-0.30475c0.0177,-52.82269 0.0354,-105.64544 0.14764,-158.92077z" fill="#FFFFFF"/>
  <path id="svg_15" d="m756.16895,803.35236c-32.01954,-0.13092 -64.03907,-0.26185 -96.50946,-0.45557c-0.43342,-62.02619 -0.4159,-123.98944 0.12976,-186.41473c5.01354,-0.46784 9.50799,-0.65925 13.98236,-0.43933c8.21417,0.40386 16.94976,-2.18494 24.23516,3.95379c0,0 -0.00677,0.00348 0.05671,0.3374c2.02221,2.11072 3.98095,3.88758 5.93969,5.66443c0,0 -0.00317,0.00165 0.06031,0.33698c2.0263,2.10907 3.98907,3.88281 5.9519,5.65655c0,0 -0.01782,0.00812 0.04749,0.33795c2.02948,2.10968 3.99365,3.88947 5.95782,5.66932c0.32507,0.0874 0.58502,0.26837 0.94281,1.10058c2.1247,2.33649 4.08643,4.11536 6.04816,5.89423c0,0 -0.01166,0.00604 0.05304,0.33801c2.01867,2.11212 3.97278,3.89221 5.92682,5.67236c0,0 0.00848,-0.00433 0.07122,0.33539c1.38538,1.42835 2.70813,2.51691 4.03089,3.60547c0,0 -0.06598,0.03333 0.0086,0.30359c0.67908,0.7655 1.28357,1.26074 1.88806,1.75604c0,0 0.00971,-0.00482 0.0716,0.33576c2.02026,2.11371 3.97864,3.88684 5.93701,5.65997c0,0 0.0011,-0.00055 0.06342,0.33685c2.02838,2.11218 3.9945,3.88697 5.96063,5.66168c0.32446,0.08722 0.58392,0.26783 0.94073,1.0987c1.79688,2.00494 3.43134,3.453 5.0658,4.90106c0.32587,0.08258 0.58398,0.26239 0.93512,1.09638c2.11194,2.33764 4.06311,4.11822 6.08679,6.36322c0.08631,2.28387 0.09296,4.10333 0.11511,5.92273c0.14893,12.22259 0.30121,24.44525 0.4524,36.66784c-0.14234,4.46173 -0.39215,8.9231 -0.40863,13.38532c-0.07843,21.22845 -0.09345,42.45703 -0.71564,64.14496c-1.49835,0.56396 -2.41199,0.66851 -3.32568,0.77307z" fill="#BDD1FF"/>
  <path id="svg_16" d="m1368.70911,646.23621c-0.54737,-0.00531 -2.32361,-0.14557 -2.33289,-0.36158c-0.14807,-3.44708 -2.24304,-3.90777 -5.09753,-3.8999c-31.31897,0.08649 -62.63806,0.10413 -94.39746,0.15137c-0.51758,-10.63519 -0.65064,-21.28113 -0.66138,-31.92725c-0.03052,-29.96179 -0.01074,-59.92364 -0.01074,-89.88543c0,-1.98432 0,-3.96857 0,-6.50678c1.86548,-0.14807 3.45227,-0.38275 5.03942,-0.38391c30.1283,-0.02191 60.25696,0.06226 90.38428,-0.10406c4.34534,-0.02399 5.67456,1.18383 5.65589,5.62072c-0.16455,39.11609 -0.12171,78.23328 -0.04737,117.34998c0.00611,3.25952 0.69141,6.51782 1.46778,9.94684z" fill="#BBD0FF"/>
  <path id="svg_17" d="m322.15234,816.98975c1.20035,-0.39356 2.35724,-0.19471 3.51413,-0.19489c38.78537,-0.00623 77.57071,-0.03137 116.81241,-0.14819c2.77054,-0.00403 5.08475,0.16345 7.39905,0.16522c39.84653,0.03027 79.69305,0.04004 120.03546,0.10059c-5.00543,8.56323 -5.31049,18.07635 -4.94568,27.76361c0.18036,4.78814 0.0166,9.58929 -0.06097,14.84784c-78.94281,0.46832 -157.81632,0.4389 -236.68955,0.56445c-4.70721,0.00744 -6.4472,-1.25611 -6.31225,-6.16242c0.33395,-12.13824 0.16867,-24.29022 0.2474,-36.93621z" fill="#014EFF"/>
  <path id="svg_18" d="m996.24286,749.73584c21.38672,20.72083 42.73199,41.93097 63.9776,63.24036c2.61853,2.62652 5.23535,3.93463 9.11316,3.9245c52.27588,-0.13569 104.55249,-0.14942 156.82837,0.00891c4.70556,0.01428 6.29138,-1.10742 6.22656,-6.03961c-0.26245,-19.97449 -0.09448,-39.9546 0.02844,-60.38428c0.59912,1.20654 1.49793,2.86249 1.50672,4.52307c0.09997,18.98663 0.18884,37.97504 0.02343,56.96069c-0.12158,13.96338 -0.70923,27.92224 -0.90625,41.88568c-0.06372,4.51123 -2.05651,6.1847 -6.42675,6.18006c-53.13062,-0.05634 -106.26136,-0.00263 -159.39148,-0.15772c-2.19251,-0.00634 -4.90601,-1.25201 -6.48987,-2.8175c-20.72925,-20.48932 -41.33216,-41.10706 -61.83692,-61.82117c-1.47827,-1.49341 -2.7268,-3.97473 -2.75763,-6.01666c-0.19641,-12.98584 -0.0205,-25.97724 0.10462,-39.48633z" fill="#024FFF"/>
  <path id="svg_19" d="m1098.43579,725.00952c-0.47095,-14.12274 -0.47095,-28.2475 -0.47095,-43.27557c43.98975,0 87.98914,0 132.74622,-0.0119c1.16797,-0.10712 1.57813,-0.20234 1.9884,-0.29749c0.09485,12.63647 0.16736,25.27313 0.29676,37.90924c0.04492,4.38684 -2.3523,5.73053 -6.34815,5.69672c-10.31177,-0.08728 -20.62476,-0.02619 -30.93726,-0.02576c-32.26806,0.00122 -64.53613,0.00189 -97.27502,0.00476z" fill="#014EFF"/>
  <path id="svg_20" d="m881.13428,816.59424c26.2774,0.05511 52.55481,0.11017 79.60449,0.20361c1.21527,-0.01251 1.65839,-0.06347 2.10144,-0.11444c0.05042,12.66211 0.03119,25.32514 0.1936,37.98578c0.04889,3.81592 -1.39459,5.37976 -5.2843,5.36957c-30.49206,-0.0802 -60.98462,-0.0727 -91.47681,-0.00898c-3.62902,0.00757 -5.20049,-1.62164 -5.24023,-5.07696c-0.00574,-0.49976 -0.02203,-0.99957 -0.02399,-1.49933c-0.33325,-84.78302 -0.66857,-169.5661 -0.97473,-254.34918c-0.00537,-1.47211 0.34027,-2.9455 0.95618,-4.40265c0.5376,2.33881 0.73083,4.66193 0.73138,6.98505c0.01612,68.97143 0.01307,137.94281 0.0138,206.91424c0,1.49933 0.08307,3.00293 -0.00177,4.49713c-0.16156,2.84467 1.22406,3.82184 3.93103,3.73566c5.15393,-0.164 10.31299,-0.16864 15.46991,-0.2395z" fill="#0551FF"/>
  <path id="svg_21" d="m759.97894,681.99402c-1.95123,-1.78058 -3.9024,-3.56116 -5.91583,-5.67993c1.53326,0.76977 3.12879,1.87756 5.65723,3.63324c0.16424,-2.58795 0.37982,-4.43262 0.38318,-6.27765c0.03283,-17.9588 0.18157,-35.91968 -0.06531,-53.875c-0.06446,-4.68561 1.45679,-5.83826 5.95972,-5.78156c18.78723,0.23657 37.58129,0.25275 56.36785,-0.01092c4.54358,-0.06378 5.53931,1.3919 5.49347,5.66394c-0.21734,20.28454 -0.11242,40.57245 -0.5426,61.40198c-3.08038,0.60797 -5.74036,0.72039 -8.40063,0.73077c-19.6457,0.07642 -39.29139,0.13257 -58.93708,0.19513z" fill="#B5CCFE"/>
  <path id="svg_22" d="m881.11169,816.15161c-5.13433,0.51349 -10.29339,0.51813 -15.44732,0.68213c-2.70697,0.08618 -4.09259,-0.89099 -3.93103,-3.73566c0.08484,-1.4942 0.00177,-2.9978 0.00177,-4.49713c-0.00073,-68.97143 0.00232,-137.94281 -0.0138,-206.91424c-0.00055,-2.32312 -0.19378,-4.64624 -0.49804,-7.3266c-0.11768,-14.04962 -0.07239,-27.74237 0.09247,-41.43378c0.02264,-1.88342 0.63891,-3.75964 1.37591,-5.67035c0.34064,14.11633 0.36035,28.26489 0.17889,42.41083c-0.04614,3.59332 1.51795,4.44098 4.8014,4.55292c9.37377,0.31952 13.18823,4.40973 13.18975,13.74933c0.01124,66.91961 0.00446,133.83923 0.01636,200.75884c0.00043,2.32703 0.13758,4.65406 0.23364,7.42371z" fill="#BACFFF"/>
  <path id="svg_23" d="m1468.552,642.71478c-2.41809,0.06397 -4.67309,-0.65924 -6.93005,-0.66577c-27.03638,-0.07849 -54.07312,-0.06995 -81.10962,-0.01593c-2.29566,0.00458 -4.59033,0.49817 -7.31506,0.78699c14.89965,-15.4112 30.22754,-30.84638 45.55957,-46.27728c4.33581,-4.36396 8.505,-8.91932 13.11596,-12.97101c1.79554,-1.57788 4.56848,-2.72663 6.94995,-2.82984c7.97229,-0.34576 15.98255,0.15216 23.95118,-0.23388c5.02746,-0.24366 6.08752,1.72125 6.03051,6.34253c-0.22741,18.46759 -0.09155,36.93963 -0.25244,55.86419z" fill="#BACFFF"/>
  <path id="svg_24" d="m1366.79492,753.00464c0.0979,13.70184 0.19593,27.40368 -0.20544,41.57641c-2.11756,1.54523 -3.97547,2.38123 -5.31641,3.73084c-13.09265,13.17743 -26.14722,26.3938 -39.09375,39.71454c-2.96802,3.05371 -5.47925,6.55133 -8.20056,9.84466c-8.95203,0.07654 -17.93945,-0.30334 -26.84387,0.38684c-6.14771,0.47651 -12.18079,2.4325 -18.60779,3.7826c-1.06873,-1.59949 -2.39453,-3.24433 -2.42212,-4.91059c-0.16345,-9.8905 -0.02637,-19.78588 0.05444,-30.18353c10.52491,-0.38519 21.00721,-0.13159 31.48352,-0.28717c1.65271,-0.02453 3.54041,-1.63434 4.87647,-2.95837c20.31348,-20.13086 40.55298,-40.33637 61.48523,-60.60895c1.38025,-0.08539 2.08533,-0.08637 2.79028,-0.08728z" fill="#004EFF"/>
  <path id="svg_25" d="m1366.98938,815.99884c1.60632,0.26727 3.21228,0.76514 4.81897,0.76752c30.54114,0.04602 61.08228,0.05291 91.62329,-0.01831c1.69055,-0.00391 3.37915,-0.75537 5.3468,-1.43482c0.25,13.31964 0.21143,26.9151 0.20056,40.51062c-0.00341,4.17432 -2.81054,4.28736 -6.24292,4.14002c-8.27783,-8.82788 -18.37512,-11.98383 -29.91003,-11.88843c-21.61487,0.17871 -43.23108,0.17279 -65.32312,-0.29419c-0.48877,-10.95264 -0.50122,-21.36755 -0.51355,-31.78241z" fill="#0551FE"/>
  <path id="svg_26" d="m760.05139,682.45837c19.57324,-0.52691 39.21893,-0.58306 58.86463,-0.65948c2.66027,-0.01038 5.32025,-0.1228 8.42144,-0.30133c0.51062,12.6673 0.48597,25.44946 0.7024,38.22754c0.07287,4.29992 -1.96381,5.34051 -5.8089,5.32324c-20.25324,-0.09088 -40.50714,-0.02966 -61.1864,-0.01025c-0.57685,-12.21167 -0.72913,-24.43433 -0.87806,-36.65692c-0.02215,-1.8194 -0.0288,-3.63886 -0.11511,-5.9228z" fill="#0350FF"/>
  <path id="svg_27" d="m1232.68152,680.9967c-0.39233,0.52301 -0.80249,0.61823 -1.51904,0.63623c-0.23218,-11.21295 -0.35425,-22.35522 0.00769,-33.48168c0.15502,-4.76417 -1.31812,-6.30024 -6.16883,-6.26105c-25.76721,0.20843 -51.53784,0.19378 -77.30481,-0.0351c-3.06738,-0.02728 -6.66699,-1.14447 -9.01013,-3.0188c-1.98669,-1.58917 -3.23523,-4.92474 -3.53174,-7.6278c-0.57727,-5.26099 -0.25854,-10.6203 -0.29919,-16.38294c19.99243,-0.52985 39.97302,-0.63104 59.95361,-0.69513c10.82642,-0.03467 21.65625,0.14386 32.47791,-0.08539c3.90344,-0.0827 5.21618,1.10846 5.20141,5.07325c-0.07653,20.48303 0.09204,40.96691 0.19312,61.87841z" fill="#B8CEFE"/>
  <path id="svg_28" d="m603.30487,658.53967c-10.77643,-10.07153 -21.31842,-20.42193 -31.83423,-30.79876c-4.177,-4.12183 -8.29614,-8.30237 -12.44165,-12.45612c0.22077,-0.38818 0.44153,-0.77631 0.66235,-1.16449c5.09315,0 10.18622,0.00006 15.27936,0c14.97876,-0.00018 29.95935,-0.12891 44.93512,0.08307c4.11652,0.05829 5.44348,-1.17633 5.40955,-5.34467c-0.16559,-20.30267 -0.04755,-40.60754 0.05377,-61.36883c0.59515,1.17926 1.54254,2.81323 1.55151,4.45239c0.10407,19.10663 0.19062,38.21509 0.0254,57.3208c-0.11915,13.76294 -0.62195,27.52265 -0.95679,41.28369c-0.13996,5.74951 -0.84656,6.26654 -6.81519,6.50348c-5.21576,0.20703 -10.41669,0.78559 -15.8692,1.48944z" fill="#0753FF"/>
  <path id="svg_29" d="m941.02368,658.90381c-10.75738,-9.94415 -21.30279,-20.30335 -31.9491,-30.55774c-4.41546,-4.25293 -9.04687,-8.28168 -13.58007,-12.41235c0.3208,-0.68848 0.64154,-1.37696 0.96234,-2.06543c21.83496,0 43.66986,0 65.95593,-0.10077c0.49396,12.70617 0.45361,25.51422 0.63233,38.31927c0.05078,3.6438 -1.22364,5.1546 -4.9256,4.96436c-3.98157,-0.20459 -7.98975,-0.18872 -11.97016,0.02801c-1.67285,0.09119 -3.3042,0.94495 -5.12567,1.82465z" fill="#0652FF"/>
  <path id="svg_30" d="m1447.00012,748.49164c-3.83032,0.34979 -7.62634,0.34979 -12.26318,0.34979c0,-6.36816 0.58435,-12.84235 -0.13355,-19.16864c-1.14526,-10.09131 1.85559,-17.52411 9.94385,-24.09253c8.20569,-6.66382 15.1189,-14.91925 22.90784,-22.59918c0.72131,1.60199 1.47119,3.32208 1.48901,5.04962c0.10999,10.62445 0.26758,21.25787 -0.09521,31.87103c-0.09082,2.65888 -1.44983,5.76996 -3.23291,7.77997c-4.83924,5.4549 -10.27552,10.3758 -15.34461,15.63422c-1.32348,1.37292 -2.17077,3.20483 -3.27124,5.17572z" fill="#0350FF"/>
  <path id="svg_33" d="m606.15704,802.90997c5.07923,-5.77759 10.78888,-11.35827 16.12622,-17.27478c1.49903,-1.6618 2.68134,-4.30664 2.6933,-6.50763c0.16919,-31.10931 0.17279,-62.22021 -0.01398,-93.32934c-0.01428,-2.37482 -1.76586,-4.73932 -2.79949,-7.46185c3.64941,0.63543 4.75213,3.52758 4.75689,6.88464c0.04499,31.61462 0.08173,63.22955 -0.03064,94.84381c-0.02594,7.29181 -0.63171,14.58154 -0.9898,22.33142c-6.43048,0.50067 -12.84174,0.54205 -19.7425,0.51373z" fill="#1C60FA"/>
  <path id="svg_36" d="m697.90576,619.67017c-7.18439,-5.81238 -15.91998,-3.22358 -24.13415,-3.62744c-4.47437,-0.21992 -8.96882,-0.02851 -13.89417,-0.01978c0.80158,-0.63379 2.03333,-1.79913 3.28595,-1.8219c8.75842,-0.15973 17.55377,-0.50971 26.2641,0.15753c2.90265,0.22229 5.59094,3.24353 8.47827,5.31159z" fill="#B5CCFE"/>
  <path id="svg_37" d="m1469.29688,757.62402c-0.5127,-2.36224 -0.81031,-5.04699 -1.23072,-8.14373c3.547,1.73278 1.65308,4.93768 1.23072,8.14373z" fill="#0551FE"/>
  <path id="svg_38" d="m728.89142,650.68799c-1.85394,-1.46381 -3.80805,-3.2439 -5.82404,-5.36133c1.8667,1.45685 3.79529,3.25092 5.82404,5.36133z" fill="#B5CCFE"/>
  <path id="svg_39" d="m703.91101,625.67853c-1.86658,-1.45703 -3.82532,-3.23389 -5.84582,-5.3479c1.87671,1.45123 3.81524,3.23962 5.84582,5.3479z" fill="#B5CCFE"/>
  <path id="svg_40" d="m722.89441,644.68408c-1.84448,-1.46899 -3.80621,-3.24786 -5.83081,-5.36474c1.86261,1.45959 3.78808,3.25726 5.83081,5.36474z" fill="#B5CCFE"/>
  <path id="svg_41" d="m715.94006,637.67542c-1.88354,-1.45612 -3.84771,-3.23591 -5.87158,-5.35401c1.8905,1.45123 3.8407,3.24072 5.87158,5.35401z" fill="#B5CCFE"/>
  <path id="svg_42" d="m709.93787,631.66736c-1.88532,-1.44922 -3.84809,-3.22296 -5.87354,-5.33362c1.8902,1.44507 3.84314,3.22705 5.87354,5.33362z" fill="#B5CCFE"/>
  <path id="svg_43" d="m740.91943,662.67712c-1.8789,-1.4497 -3.83728,-3.22283 -5.85998,-5.33172c1.88391,1.44556 3.83221,3.22693 5.85998,5.33172z" fill="#B5CCFE"/>
  <path id="svg_44" d="m746.9411,668.67578c-1.88428,-1.45141 -3.8504,-3.2262 -5.87909,-5.33777c1.89069,1.44696 3.844,3.23072 5.87909,5.33777z" fill="#B5CCFE"/>
  <path id="svg_45" d="m752.94543,674.67835c-1.55041,-1.12757 -3.18487,-2.57563 -4.88195,-4.36139c1.55749,1.12182 3.17773,2.58129 4.88195,4.36139z" fill="#B5CCFE"/>
  <path id="svg_46" d="m732.98053,654.64075c-1.20966,-0.78412 -2.53241,-1.87268 -3.91986,-3.29694c1.22577,0.77381 2.51623,1.88318 3.91986,3.29694z" fill="#B5CCFE"/>
  <path id="svg_47" d="m756.32367,803.65637c0.75897,-0.40857 1.67261,-0.51312 3.04486,-0.62091c0.60162,0.42236 0.74469,0.84796 0.8855,1.50867c-1.26013,-0.03778 -2.51789,-0.31073 -3.93036,-0.88776z" fill="#B5CCFE"/>
  <path id="svg_48" d="m962.66138,682.8269c-0.57636,-0.32617 -1.02362,-0.95898 -1.43055,-1.89764c0.54676,0.32648 1.05323,0.95874 1.43055,1.89764z" fill="#BACFFF"/>
  <path id="svg_49" d="m962.65088,548.81592c-0.63452,-0.15259 -1.146,-0.62512 -1.68494,-1.37073c0.58435,0.16815 1.19617,0.60944 1.68494,1.37073z" fill="#BACFFF"/>
  <path id="svg_50" d="m734.91254,656.71167c-0.52674,-0.20215 -1.13123,-0.69739 -1.79865,-1.49799c0.53174,0.19812 1.12628,0.70148 1.79865,1.49799z" fill="#B5CCFE"/>
  <path id="svg_51" d="m962.82874,816.36768c-0.43158,0.3667 -0.8747,0.41766 -1.63416,0.35986c0.06134,-0.66406 0.43903,-1.21942 1.07483,-1.823c0.35467,0.35028 0.45123,0.74884 0.55933,1.46314z" fill="#BACFFF"/>
  <path id="svg_52" d="m794.94128,904.02429c0.09711,13.79962 0.16089,27.59967 0.31891,41.39862c0.03235,2.82385 -1.32214,3.83692 -3.92425,3.8985c-4.15259,0.09821 -8.30304,0.28833 -13.27161,0.29682c-8.99353,-0.14277 -17.16968,-0.14277 -26.62744,-0.14277c2.12506,2.31421 3.27716,3.66272 4.52624,4.91449c11.26905,11.29285 22.53827,22.58564 33.85645,33.82917c1.51233,1.50238 3.29767,2.72992 4.9566,4.08465c0.15851,1.8197 0.45307,3.63928 0.45514,5.45917c0.02997,26.16376 -0.06952,52.32812 0.10712,78.49072c0.03033,4.49524 -1.18793,6.05896 -5.87836,5.99549c-18.32794,-0.24817 -36.66302,-0.23719 -54.99139,-0.00464c-4.51648,0.05725 -5.64618,-1.51587 -5.62085,-5.77429c0.15155,-25.49622 -0.03961,-50.99476 0.16125,-76.4903c0.03766,-4.78278 -1.35388,-6.31152 -6.20178,-6.24274c-17.99432,0.25537 -35.99688,0.26111 -53.99103,-0.00207c-4.93688,-0.07215 -6.15796,1.63 -6.12237,6.32165c0.19232,25.3291 -0.02466,50.66114 0.177,75.99012c0.03821,4.79394 -1.37585,6.27294 -6.21039,6.20544c-18.49438,-0.25818 -36.99469,-0.15015 -55.49225,-0.06287c-3.2727,0.01551 -5.23297,-0.35925 -5.22522,-4.49499c0.13477,-72.15747 0.1399,-144.31525 0.67267,-216.95758c49.09107,-0.50989 97.68305,-0.44641 146.27362,-0.68055c5.62921,-0.02709 9.58142,1.57673 13.50324,5.6131c12.62958,12.99866 25.66797,25.60022 38.5487,38.35486m-66.11956,17.96869c0.02887,-4.15228 -0.0434,-8.30847 0.12018,-12.45544c0.12011,-3.04767 -0.758,-4.53296 -4.17798,-4.51258c-19.26929,0.11469 -38.53992,0.11286 -57.80927,0.00293c-3.39093,-0.01934 -4.31433,1.42023 -4.19989,4.49481c0.16681,4.47944 0.08496,8.96808 -0.25061,14.19019c-0.0896,6.81909 -0.25885,13.63855 -0.23151,20.45722c0.01178,2.92584 0.97962,5.02777 4.67981,5.00701c19.32929,-0.10852 38.65961,-0.08239 57.98926,-0.02191c3.07453,0.00965 4.11249,-1.39355 4.04962,-4.27148c-0.15997,-7.32465 -0.21051,-14.65167 -0.16961,-22.89075z" fill="#FE6B00"/>
  <path id="svg_53" d="m1615.6853,905.41943c0.01636,5.55432 0.0326,11.10858 -0.08972,17.49713c-0.24353,7.48194 -0.22449,14.13477 -0.49914,20.77546c-0.16993,4.11175 1.46484,5.55511 5.56555,5.5086c14.64489,-0.16607 29.2937,-0.17492 43.93896,-0.02936c12.79834,0.1272 25.594,0.54236 38.39075,0.83033c-14.14111,14.26788 -28.28223,28.53589 -43.15064,42.99292c-13.39331,0.17511 -26.06018,0.09332 -38.72473,0.22528c-1.75903,0.01825 -3.50695,1.09033 -5.25989,1.67456c-0.02868,5.39374 -0.05725,10.78753 -0.22363,17.0097c-0.25964,6.97644 -0.44665,13.12415 -0.48571,19.27259c-0.04249,6.66162 0.11279,6.78747 6.6134,6.79077c25.30945,0.01245 50.61889,-0.00745 75.92834,0.0271c2.31641,0.00317 4.63245,0.30859 6.94861,0.47375c-0.19556,12.82373 -0.54187,25.64783 -0.50195,38.47083c0.01318,4.27343 -1.62073,5.29443 -5.60755,5.27978c-33.66235,-0.12463 -67.32592,0.00159 -100.98742,-0.21216c-2.63867,-0.01684 -5.8938,-1.38208 -7.79517,-3.2229c-12.68896,-12.28503 -25.17151,-24.78833 -37.48682,-37.4486c-1.76123,-1.81055 -3.19189,-4.84705 -3.2019,-7.32252c-0.17236,-42.66052 -0.09741,-85.32214 0.42859,-128.45636c8.47168,-0.48461 16.43823,-0.54565 24.4043,-0.49725c13.93212,0.08466 27.86401,0.23663 41.79577,0.36035z" fill="#FE6B00"/>
  <path id="svg_54" d="m1527.03613,1038.99451c-0.01733,10.02612 -0.03466,20.05237 -0.23645,30.89074c-0.34241,4.59729 -0.50036,8.38221 -0.65832,12.16712c-35.6493,0.03027 -71.29883,0.10437 -106.94763,-0.02283c-2.04395,-0.00744 -4.56336,-1.16626 -6.04749,-2.62024c-12.97022,-12.70642 -25.82092,-25.53747 -38.5094,-38.5249c-1.55054,-1.58716 -2.7345,-4.3114 -2.74109,-6.5127c-0.12964,-42.81225 -0.05859,-85.62518 0.50611,-128.888c22.20629,-0.43109 43.87768,-0.41205 65.54907,-0.39306c0.09192,5.62622 0.18396,11.2525 0.23987,17.8067c-0.07715,7.42303 0.12927,13.93225 -0.24195,20.40832c-0.26977,4.70673 1.53748,5.94904 6.04248,5.91608c24.48499,-0.17908 48.97193,-0.1062 73.45813,-0.05371c2.64441,0.00568 5.28809,0.43842 7.93201,0.67303c-1.33508,1.67145 -2.52148,3.49268 -4.02881,4.99091c-12.86816,12.79205 -25.79468,25.52545 -39.44751,38.37482c-13.44653,0.0448 -26.14953,-0.06153 -38.8518,0.01013c-1.4524,0.00812 -2.89942,1.01154 -4.349,1.55347c-0.15491,5.39495 -0.30982,10.78985 -0.50074,17.1112c-0.08435,7.23572 0.18225,13.56812 -0.27771,19.84729c-0.38452,5.24781 1.69959,6.38526 6.57593,6.34375c25.2428,-0.21484 50.48853,-0.12561 75.73291,-0.05505c2.26807,0.00635 4.5343,0.63647 6.80139,0.97693z" fill="#FE6B00"/>
  <path id="svg_55" d="m1128.11157,949.96387c-0.02966,41.65527 -0.05066,83.31054 -0.09717,124.96582c-0.00805,7.20825 -0.14306,6.52331 -6.99816,7.37475c-11.11841,1.38086 -19.11268,-2.39062 -26.41761,-10.84936c-8.90539,-10.31238 -19.27783,-19.34522 -28.74316,-29.1936c-3.25134,-3.38282 -5.30347,-3.7284 -8.76087,-0.15638c-11.93408,12.33008 -24.26428,24.27576 -36.28979,36.51905c-2.55041,2.59655 -5.17316,3.79943 -8.79913,3.5841c-4.31708,-0.25647 -8.66443,-0.1748 -12.9917,-0.03076c-2.98206,0.09924 -4.20679,-1.01025 -4.10993,-4.06372c0.15851,-4.99353 0.03247,-9.99597 0.03723,-14.99463c0.03565,-37.65539 0.07398,-75.31067 0.61963,-113.44568c42.72815,-0.49774 84.948,-0.52612 127.16797,-0.49914c1.79431,0.00116 3.5885,0.51477 5.38269,0.78955z" fill="#FE6B00"/>
  <path id="svg_56" d="m1881.71582,1038.39209c0.00366,12.49487 -0.10474,24.99121 0.06946,37.48364c0.06396,4.58789 -1.31384,6.40943 -6.29566,6.37927c-33.48535,-0.20336 -66.9729,-0.0415 -100.45837,-0.23632c-2.49597,-0.01453 -5.58887,-1.26074 -7.37439,-2.99488c-13.0249,-12.65075 -25.86047,-25.50085 -38.5404,-38.49804c-1.65296,-1.69434 -2.88831,-4.57166 -2.93531,-6.92847c-0.26159,-13.15546 -0.09765,-26.31934 0.2229,-40.12366c13.51233,-13.8183 26.78162,-26.93506 39.88672,-40.21374c2.91333,-2.95185 6.00757,-4.23071 10.16284,-4.19397c17.99097,0.15912 35.98597,0.20593 53.97535,-0.0279c4.56994,-0.05944 7.74865,1.43042 10.90881,4.63361c12.74438,12.91803 25.73865,25.58942 38.64075,38.35181c-1.88379,0.60571 -3.76526,1.72961 -5.65186,1.73858c-24.82825,0.11798 -49.65735,0.07587 -74.48621,0.081c-6.98608,0.00146 -6.99487,0.01214 -6.99243,7.21777c0.0011,3.33234 0.0437,6.66461 0.0719,10.9303c-0.00952,7.24798 0.24866,13.57886 -0.12598,19.87207c-0.28771,4.83179 1.40955,6.24341 6.19959,6.20459c25.42395,-0.20654 50.85046,-0.10694 76.276,-0.07861c2.14893,0.00244 4.29749,0.26257 6.44629,0.40295z" fill="#FE6B00"/>
  <path id="svg_57" d="m2036.724,993.35358c0.02624,27.99872 0.00073,55.99774 0.1405,83.99579c0.01856,3.73205 -1.26611,5.27783 -4.94177,4.80236c-0.32776,-0.04248 -0.67456,-0.05322 -0.99805,0.00379c-12.11938,2.13611 -21.05188,-2.31238 -29.01538,-11.70789c-8.69775,-10.2616 -19.02209,-19.13135 -28.40271,-28.83484c-2.99475,-3.09778 -4.78967,-2.69311 -7.61108,0.19837c-12.55591,12.86719 -25.30921,25.54199 -38.06214,38.21484c-0.98205,0.97595 -2.49438,1.93616 -3.79455,1.98486c-5.82483,0.21766 -11.67224,0.28223 -17.48633,-0.04443c-1.15283,-0.06482 -2.28625,-2.02039 -3.23914,-3.25085c-0.32763,-0.42347 -0.08947,-1.29432 -0.08911,-1.96082c0.01148,-27.4989 0.02515,-54.99786 0.34485,-83.09753c1.78565,-1.92981 3.32813,-3.1958 4.73487,-4.59809c12.00598,-11.96698 23.89099,-24.05822 36.07604,-35.83935c1.90369,-1.84052 5.11402,-3.17218 7.7649,-3.25171c11.62292,-0.34888 23.26416,-0.03217 34.89453,-0.21924c3.77661,-0.06073 6.55444,1.03168 9.22534,3.76386c11.1521,11.40795 22.49023,22.63433 33.80627,33.88092c2.10901,2.09594 4.42994,3.97876 6.65296,5.95996z" fill="#FE6B00"/>
  <path id="svg_58" d="m972.83447,1038.24792c-0.00073,12.82508 -0.1214,25.65198 0.06891,38.47413c0.0592,3.98767 -1.00073,5.531 -5.29382,5.51135c-33.81165,-0.15466 -67.62457,-0.02234 -101.43579,-0.2179c-2.49231,-0.0144 -5.57654,-1.27807 -7.36377,-3.01342c-12.78461,-12.41321 -25.38996,-25.01612 -37.81006,-37.79419c-1.74249,-1.79273 -3.00055,-4.84851 -3.05933,-7.35303c-0.31231,-13.31799 -0.17084,-26.64661 0.15686,-40.57532c1.685,-1.84082 3.06812,-3.03613 4.36176,-4.32153c13.20697,-13.12238 26.39929,-26.25946 40.05298,-39.31635c8.78808,0.10944 17.11932,0.20587 25.44977,0.16156c13.31994,-0.07092 26.63952,-0.23535 40.25677,-0.15515c8.76129,8.5401 17.17194,16.92999 25.70892,25.18933c5.0777,4.91254 10.35389,9.61981 15.54084,14.41937c0.55365,1.09198 1.10723,2.18397 1.29467,3.58857c-26.96643,0.30707 -53.56671,0.26605 -80.1665,0.36969c-1.93298,0.0075 -3.86188,1.06512 -5.79273,1.63446c-0.17547,5.38568 -0.35101,10.77136 -0.57775,17.05035c-0.10437,7.70996 -0.01398,14.53204 -0.26648,21.34125c-0.14234,3.83728 1.54004,4.8396 5.06695,4.78198c9.47748,-0.15503 18.95941,-0.08057 28.43933,-0.04431c18.45624,0.07068 36.9123,0.17749 55.36847,0.26916z" fill="#FE6B00"/>
  <path id="svg_59" d="m1349.20422,992.93927c0.06897,0.43304 0.13806,0.86603 0.13806,2.08685c-0.12805,13.75507 -0.25512,26.72254 -0.22302,39.6897c0.02271,9.13208 0.2616,18.26355 0.40393,27.39539c-0.10388,5.32544 -0.31958,10.6521 -0.26806,15.97607c0.02893,3.00464 -1.14319,4.10339 -4.13697,4.09143c-19.31884,-0.0769 -38.63806,-0.07361 -57.95691,-0.00159c-2.93762,0.01099 -4.31835,-1.01648 -4.2279,-4.04345c0.09436,-3.16077 -0.03113,-6.32776 -0.03149,-9.49195c-0.00525,-45.63293 0.01806,-91.26593 -0.02808,-136.89886c-0.00855,-8.4859 -0.29151,-16.9715 -0.04028,-25.95319c22.29272,-0.58044 44.17798,-0.66504 66.11865,-0.28698c0.22741,7.84344 0.39929,15.22442 0.57129,22.60534c-0.10059,5.47492 -0.40283,10.95618 -0.23181,16.42261c0.11682,3.72967 -1.50525,5.11017 -4.95032,5.11218c-3.81787,0.00226 -7.63562,0.07153 -12.2749,-0.03052c-8.98645,-0.14215 -17.15137,-0.14215 -26.53821,-0.14215c1.89136,2.13074 2.88953,3.37427 4.00879,4.4972c9.12439,9.15515 18.23681,18.32263 27.42749,27.41089c3.98962,3.94506 8.15454,7.71276 12.23974,11.56103z" fill="#FE6C00"/>
  <path id="svg_60" d="m1216.85718,994.90875c-0.03467,26.99475 -0.20581,53.99054 0.01501,80.98322c0.04248,5.19079 -1.59558,6.44055 -6.55078,6.36426c-17.99292,-0.2771 -35.99548,-0.2815 -53.98828,0.00219c-4.99927,0.07886 -6.52869,-1.26477 -6.50354,-6.39721c0.20349,-41.65906 0.11731,-83.31983 0.5979,-125.48206c5.94873,-0.52148 11.46008,-0.94818 16.87268,-0.39941c2.9928,0.3034 6.50134,1.53216 8.60913,3.55883c12.18616,11.71698 24,23.82032 36.01099,35.72126c1.48596,1.47223 3.39306,2.51953 5.09289,3.75042c-0.01196,-0.01324 -0.03784,-0.03662 -0.06543,0.28608c-0.04858,0.75262 -0.06958,1.18249 -0.09057,1.61242z" fill="#FF6C00"/>
  <path id="svg_61" d="m795.13269,903.72522c-13.07214,-12.45557 -26.11053,-25.05713 -38.74011,-38.05579c-3.92182,-4.03637 -7.87403,-5.64019 -13.50324,-5.6131c-48.59057,0.23414 -97.18255,0.17066 -146.22259,0.2353c-0.51917,-6.95008 -0.50165,-13.94202 -0.69672,-20.92811c-0.10022,-3.58782 1.45337,-5.27532 4.96668,-5.30413c1.33178,-0.01093 2.66363,-0.02759 3.99542,-0.02765c45.78436,-0.00141 91.56885,0.05951 137.35278,-0.0777c5.72156,-0.01715 10.08551,1.57941 14.13397,5.79553c11.29834,11.76642 22.89582,23.25141 34.57605,34.64154c3.00525,2.93073 4.26233,5.95868 4.11762,10.11811c-0.21893,6.29559 0.1134,12.61029 0.02014,19.216z" fill="#B52F00"/>
  <path id="svg_62" d="m1704.53369,816.23303c0.146,13.14179 0.27686,26.28376 0.44727,39.42523c0.05298,4.09284 -2.62281,4.36243 -5.7146,4.35804c-19.4784,-0.02765 -38.95679,-0.00922 -58.91138,0.01245c-3.62414,-2.55506 -6.77197,-5.12854 -10.29858,-8.27979c-1.21961,-0.85064 -2.06067,-1.12353 -2.90162,-1.39642c-7.74121,-0.76306 -15.48254,-1.52612 -23.68456,-2.37244c-0.79395,-8.46405 -1.18274,-16.84344 -1.41529,-25.22705c-0.0487,-1.75647 0.47803,-3.52887 1.44678,-5.64099c3.26526,-0.39288 5.82312,-0.43878 8.84534,-0.37341c28.90039,0.10425 57.33642,0.1101 85.77258,0.0647c2.13818,-0.00342 4.276,-0.37171 6.41406,-0.57032z" fill="#004EFF"/>
  <path id="svg_63" d="m1879.99194,991.55298c-12.91552,-12.29193 -25.90979,-24.96332 -38.65417,-37.88135c-3.16016,-3.20319 -6.33887,-4.69305 -10.90881,-4.63361c-17.98938,0.23383 -35.98438,0.18702 -53.97535,0.0279c-4.15527,-0.03674 -7.24951,1.24212 -10.16284,4.19397c-13.1051,13.27868 -26.37439,26.39544 -39.86108,39.75879c-1.46594,-24.456 -1.46558,-24.45563 15.84631,-41.76239c7.76953,-7.76709 15.67359,-15.40662 23.24256,-23.3645c3.27319,-3.44129 7.03869,-4.83967 11.52978,-4.84632c17.97729,-0.02649 35.95923,-0.21692 53.92786,0.17627c3.27233,0.07166 7.22302,1.82391 9.61181,4.10693c12.271,11.72803 24.23487,23.78547 36.03467,35.99012c1.84131,1.9046 3.04211,5.10669 3.22827,7.79931c0.45801,6.62671 0.15271,13.30622 0.14099,20.43488z" fill="#B52F00"/>
  <path id="svg_64" d="m969.79181,988.95764c-5.51025,-4.50043 -10.78644,-9.2077 -15.86414,-14.12024c-8.53698,-8.25934 -16.94763,-16.64923 -25.91156,-25.46673c-1.42193,-0.77368 -2.34295,-1.31635 -3.2655,-1.31879c-19.59827,-0.05206 -39.19696,-0.07306 -58.79498,0.02039c-1.30262,0.00622 -2.60059,0.97314 -3.9007,1.49328c-13.19641,13.133 -26.38873,26.27008 -39.5957,39.39246c-1.29364,1.2854 -2.67676,2.48071 -4.33496,3.84973c-0.12781,-8.26019 -0.02393,-16.65619 0.35516,-25.03973c0.04846,-1.07093 1.43799,-2.17023 2.36395,-3.09919c12.56757,-12.60797 24.99878,-25.3609 37.89545,-37.6239c2.4624,-2.34155 6.76605,-3.75915 10.25836,-3.83441c17.62726,-0.38007 35.26923,-0.01831 52.90155,-0.25378c6.96478,-0.09296 10.80353,4.58911 14.9878,8.68328c10.37976,10.15619 20.54284,20.53479 30.72277,30.89307c1.25061,1.27246 2.92353,2.95032 2.95008,4.46582c0.12683,7.21509 -0.24799,14.43891 -0.76758,21.95874z" fill="#B53000"/>
  <path id="svg_65" d="m2036.79102,992.85864c-2.29004,-1.48626 -4.61097,-3.36908 -6.71998,-5.46502c-11.31604,-11.24659 -22.65417,-22.47297 -33.80627,-33.88092c-2.6709,-2.73218 -5.44873,-3.82459 -9.22534,-3.76386c-11.63037,0.18707 -23.27161,-0.12964 -34.89453,0.21924c-2.65088,0.07953 -5.86121,1.41119 -7.7649,3.25171c-12.18505,11.78113 -24.07006,23.87237 -36.07604,35.83935c-1.40674,1.40229 -2.94922,2.66828 -4.72498,4.15314c-0.38196,-6.82776 -0.77796,-13.82843 -0.39001,-20.78552c0.14111,-2.53443 1.59228,-5.50757 3.3944,-7.35559c12.89295,-13.22187 25.96741,-26.26984 39.17444,-39.17829c1.58679,-1.55084 4.29883,-2.67865 6.51929,-2.73077c11.47437,-0.26947 22.96619,-0.35376 34.43359,0.03717c2.8368,0.09674 6.26123,1.52624 8.29822,3.49756c13.15003,12.72674 26.0625,25.70306 38.84363,38.80188c1.65845,1.69971 2.85473,4.5318 2.98608,6.91009c0.36621,6.63178 0.06006,13.30072 -0.0476,20.44983z" fill="#B63100"/>
  <path id="svg_66" d="m1128.32178,949.61572c-2.0044,0.07337 -3.79859,-0.44024 -5.5929,-0.4414c-42.21997,-0.02698 -84.43982,0.0014 -127.11352,0.04919c-0.5066,-7.12659 -0.46711,-14.28509 -0.65345,-21.43786c-0.08685,-3.33491 1.01178,-4.80384 4.56293,-4.79749c41.11688,0.07373 82.23383,0.05975 123.35077,0.02173c3.13745,-0.00293 5.14307,0.85669 5.19031,4.4245c0.09656,7.27844 0.3042,14.55548 0.25586,22.18133z" fill="#B53000"/>
  <path id="svg_67" d="m1217.02527,993.0235c-1.71192,-1.24414 -3.61902,-2.29144 -5.10498,-3.76367c-12.01099,-11.90094 -23.82483,-24.00428 -36.01099,-35.72126c-2.10779,-2.02667 -5.61633,-3.25543 -8.60913,-3.55883c-5.4126,-0.54877 -10.92395,-0.12207 -16.86536,-0.07325c-0.46154,-6.96752 -0.27868,-13.97009 -0.50512,-20.95935c-0.14258,-4.40002 1.78296,-6.04937 5.93066,-5.92682c3.32898,0.09827 6.67896,0.21808 9.99109,-0.03918c3.97742,-0.30896 6.88855,1.05292 9.69214,3.92419c11.28869,11.56153 22.78931,22.91626 34.23254,34.32636c1.22156,1.21796 2.58008,2.29877 4.56604,4.05414c0.32312,-2.30023 0.6117,-3.54035 0.65467,-4.78882c0.36621,-10.63483 0.82458,-21.26953 0.95276,-31.90796c0.0487,-4.04394 1.44872,-5.67023 5.57714,-5.60944c11.32605,0.16663 22.65784,0.1651 33.98389,0.0011c4.13599,-0.05987 5.65295,1.58246 5.54675,5.62879c-0.17932,6.82562 -0.04321,13.65948 -0.52478,20.91107c-13.4309,0.38196 -26.37732,0.39477 -39.32238,0.26666c-3.19361,-0.03161 -4.44117,1.20636 -4.40406,4.40503c0.14966,12.94287 0.15833,25.88733 0.21912,38.83124z" fill="#B63100"/>
  <path id="svg_68" d="m1704.72925,1037.96484c-2.40796,0.33826 -4.724,0.03284 -7.04041,0.02967c-25.30945,-0.03455 -50.61889,-0.01465 -75.92834,-0.0271c-6.50061,-0.0033 -6.65589,-0.12915 -6.6134,-6.79077c0.03906,-6.14844 0.22607,-12.29615 0.53186,-18.80591c27.50732,-0.36695 54.83203,-0.23987 82.15295,-0.50092c4.84131,-0.04632 6.74341,1.82538 6.85644,6.12006c0.17054,6.48718 0.10047,12.98071 0.0409,19.97497z" fill="#B63100"/>
  <path id="svg_69" d="m1527.2594,1038.651c-2.49036,0.00305 -4.75659,-0.62707 -7.02466,-0.63342c-25.24438,-0.07056 -50.49011,-0.15979 -75.73291,0.05505c-4.87634,0.04151 -6.96045,-1.09594 -6.57593,-6.34375c0.45996,-6.27917 0.19336,-12.61157 0.34558,-19.39404c27.15271,-0.42944 54.20118,-0.38739 81.24976,-0.34076c7.37671,0.01269 7.35254,0.01935 7.49744,7.54071c0.1206,6.2583 0.30688,12.51514 0.24072,19.11621z" fill="#B63100"/>
  <path id="svg_70" d="m972.8866,1037.75952c-18.5083,0.39673 -36.96436,0.28992 -55.4206,0.21924c-9.47992,-0.03626 -18.96185,-0.11072 -28.43933,0.04431c-3.52691,0.05762 -5.20929,-0.9447 -5.06695,-4.78198c0.2525,-6.80921 0.16211,-13.63129 0.33459,-20.92041c27.34174,-0.42426 54.56409,-0.37714 81.7865,-0.32691c6.87158,0.0127 6.88641,0.01728 6.89441,6.85291c0.0072,6.14148 -0.02289,12.28308 -0.08862,18.91284z" fill="#B63100"/>
  <path id="svg_71" d="m1881.79053,1037.89343c-2.22351,0.35828 -4.37207,0.09815 -6.521,0.09571c-25.42554,-0.02833 -50.85205,-0.12793 -76.276,0.07861c-4.79004,0.03882 -6.4873,-1.3728 -6.19959,-6.20459c0.37464,-6.29321 0.11646,-12.62409 0.17652,-19.4068c27.10901,-0.46649 54.17212,-0.46838 81.23511,-0.461c7.39318,0.00202 7.76855,0.36908 7.77624,7.97003c0.00574,5.80976 -0.07471,11.61957 -0.19128,17.92804z" fill="#B63100"/>
  <path id="svg_72" d="m1703.00562,949.53308c-12.81067,0.18054 -25.60633,-0.23462 -38.40467,-0.36182c-14.64526,-0.14556 -29.29407,-0.13671 -43.93896,0.02936c-4.10071,0.04651 -5.73548,-1.39685 -5.56555,-5.5086c0.27465,-6.64069 0.25561,-13.29352 0.52856,-20.30768c26.4364,-0.36267 52.70496,-0.36292 78.97339,-0.35248c7.88171,0.00311 8.37231,0.51624 8.39062,8.57605c0.01331,5.81885 0.02051,11.63776 0.01661,17.92517z" fill="#B53000"/>
  <path id="svg_73" d="m1525.53076,949.52673c-2.79321,0.07972 -5.43689,-0.35302 -8.0813,-0.3587c-24.4862,-0.05249 -48.97314,-0.12537 -73.45813,0.05371c-4.505,0.03296 -6.31225,-1.20935 -6.04248,-5.91608c0.37122,-6.47607 0.1648,-12.98529 0.30408,-19.95227c26.48047,-0.42279 52.86292,-0.37451 79.24524,-0.32373c7.34863,0.01416 7.31714,0.01838 7.526,7.48255c0.17444,6.23455 0.43396,12.46685 0.50659,19.01452z" fill="#B53000"/>
  <path id="svg_75" d="m1217.01318,993.01025c-0.0487,-12.93066 -0.05737,-25.87512 -0.20703,-38.81799c-0.03711,-3.19867 1.21045,-4.43664 4.40406,-4.40503c12.94506,0.12811 25.89148,0.1153 39.302,0.20422c0.30139,14.24274 0.13806,28.43567 -0.69947,42.94208c-14.72863,0.22229 -28.78296,0.13123 -42.8374,0.0401c0,0 0.02588,0.02338 0.03784,0.03662z" fill="#FD6A00"/>
  <path id="svg_76" d="m1348.89661,905.04004c-21.88513,0.08459 -43.77039,0.16919 -66.08057,0.35376c-0.2428,-7.51392 -0.03809,-15.1275 0.10962,-22.74213c0.05444,-2.81488 1.56702,-3.66388 4.16687,-3.65802c19.28967,0.0434 38.57935,0.04425 57.86902,-0.00042c2.62524,-0.00611 4.03271,0.90051 4.13244,3.69409c0.25403,7.12536 0.62,14.2467 0.6587,21.84771c-0.47376,0.487 -0.66492,0.49598 -0.85608,0.50501z" fill="#B63100"/>
  <path id="svg_77" d="m1437.97314,904.61462c-21.6936,0.45703 -43.36499,0.43799 -65.50488,0.40436c-0.47693,-6.98956 -0.37549,-13.96704 -0.54016,-20.93829c-0.08191,-3.46375 0.86621,-5.15998 4.73413,-5.13306c18.93128,0.13159 37.86402,0.11463 56.79566,0.01233c3.51001,-0.01898 4.67724,1.40076 4.60424,4.75317c-0.14819,6.80579 -0.05847,13.6167 -0.08899,20.90149z" fill="#B52F00"/>
  <path id="svg_78" d="m1549.00488,902c-0.00732,-5.65692 0.19727,-11.32465 -0.09009,-16.96728c-0.22387,-4.39521 1.02186,-6.19617 5.82239,-6.13056c18.29859,0.25018 36.60425,0.23682 54.90345,0.00867c4.72363,-0.05884 6.26672,2.06653 6.29687,6.18335c0.03894,5.32361 -0.005,10.64782 -0.48804,16.43927c-22.46472,0.46716 -44.45459,0.46686 -66.44458,0.46655z" fill="#B52F00"/>
  <path id="svg_79" d="m1367.0708,815.53662c-0.06909,10.87708 -0.05664,21.29199 -0.03076,32.18884c-3.64282,0.75281 -7.30322,1.29273 -10.95459,1.23645c-6.93506,-0.10687 -13.86218,-0.66705 -20.79761,-0.82977c-6.79175,-0.1593 -13.5896,-0.05816 -20.84692,-0.1662c2.25915,-3.38818 4.77038,-6.8858 7.7384,-9.93951c12.94653,-13.32074 26.0011,-26.53711 39.09375,-39.71454c1.34094,-1.34961 3.19885,-2.18561 5.16321,-3.28406c0.46948,6.66608 0.59277,13.35639 0.63452,20.50879z" fill="#0147E9"/>
  <path id="svg_81" d="m1349.3988,992.58618c-4.27978,-3.49518 -8.4447,-7.26288 -12.43432,-11.20794c-9.19068,-9.08826 -18.3031,-18.25574 -27.42749,-27.41089c-1.11926,-1.12293 -2.11743,-2.36646 -4.00879,-4.4972c9.38684,0 17.55176,0 26.07226,0.18805c4.2295,4.2605 7.84607,8.62622 12.05286,12.3197c3.89331,3.41822 6.00232,7.40912 6.09338,12.42115c0.10791,5.94183 -0.08874,11.88916 -0.3479,18.18713z" fill="#B83300"/>
  <path id="svg_82" d="m794.84503,991.81183c-1.72778,-0.86279 -3.51312,-2.09033 -5.02545,-3.59271c-11.31818,-11.24353 -22.5874,-22.53632 -33.85645,-33.82917c-1.24908,-1.25177 -2.40118,-2.60028 -4.52624,-4.91449c9.45776,0 17.63391,0 26.16522,0.18934c4.92774,4.95751 9.71649,9.54333 13.96857,14.58196c1.74658,2.06965 3.11432,5.06196 3.29767,7.72785c0.4414,6.41907 0.08197,12.89331 -0.02332,19.83722z" fill="#B83300"/>
  <path id="svg_83" d="m1548.99988,902.38831c21.99499,-0.388 43.98486,-0.3877 66.43091,-0.3866c0.43689,0.85504 0.4176,1.70935 0.32653,2.99072c-14.00378,0.30328 -27.93567,0.15131 -41.86779,0.06665c-7.96607,-0.0484 -15.93262,0.01264 -24.36219,0.03699c-0.4862,-0.76483 -0.50927,-1.54212 -0.52746,-2.70776z" fill="#B53000"/>
  <path id="svg_84" d="m885.28912,994.88184c1.44568,-0.60169 3.37458,-1.65931 5.30756,-1.66681c26.59979,-0.10364 53.20007,-0.06262 80.30463,-0.02796c-0.94214,0.61273 -2.38703,1.70075 -3.83533,1.7052c-27.09699,0.08405 -54.1944,0.03949 -81.77686,-0.01043z" fill="#B63100"/>
  <path id="svg_85" d="m1349.80225,1061.87634c-0.42139,-8.89697 -0.66028,-18.02844 -0.68299,-27.16052c-0.0321,-12.96716 0.09497,-25.93463 0.2804,-39.36584c0.60193,0.88043 1.48596,2.22302 1.49194,3.56945c0.08765,19.80951 0.07227,39.61951 0.02014,59.42932c-0.00293,1.09827 -0.54126,2.19519 -1.10949,3.52759z" fill="#B83300"/>
  <path id="svg_86" d="m1616.33716,994.91406c1.27222,-0.60394 3.02014,-1.67602 4.77917,-1.69427c12.66455,-0.13196 25.33142,-0.05017 38.46912,-0.00104c-1.30164,0.60626 -3.0697,1.6532 -4.84863,1.67181c-12.63831,0.13227 -25.27881,0.0542 -38.39966,0.0235z" fill="#B63100"/>
  <path id="svg_87" d="m1216.94775,993.29633c14.08203,-0.23157 28.13636,-0.14051 42.66053,0.0252c-1.3346,0.59821 -3.13453,1.55701 -4.94397,1.5755c-12.27991,0.12549 -24.56165,0.05249 -37.32495,0.02765c-0.46119,-0.44586 -0.44019,-0.87573 -0.39161,-1.62835z" fill="#B63100"/>
  <path id="svg_88" d="m1439.19653,994.82147c0.9574,-0.59301 2.40442,-1.59643 3.85682,-1.60455c12.70227,-0.07166 25.40527,0.03467 38.57153,0.203c-1.04224,0.59156 -2.54517,1.47193 -4.05371,1.48157c-12.62683,0.08087 -25.25489,0.00183 -38.37464,-0.08002z" fill="#B63100"/>
  <path id="svg_89" d="m1348.95215,905.50262c0.13562,-0.47161 0.32678,-0.48059 0.8053,-0.49957c0.29834,7.53931 0.3092,15.08856 0.04309,22.87146c-0.4491,-7.1474 -0.62098,-14.52838 -0.84839,-22.37189z" fill="#B83300"/>
  <path id="svg_90" d="m1526.47852,1081.88062c-0.1792,-3.61316 -0.02125,-7.39808 0.35058,-11.52662c0.13806,3.55579 0.06238,7.45545 -0.35058,11.52662z" fill="#B63100"/>
  <path id="svg_91" d="m1627.36316,850.61243c0.63257,0.013 1.47363,0.28589 2.47375,0.8692c-0.64892,0.00384 -1.45715,-0.30274 -2.47375,-0.8692z" fill="#0551FE"/>
  <path id="svg_92" d="m1920.34546,903.12347c0.14282,-0.45062 0.65076,-0.82031 1.4585,-1.36499c-0.16456,0.3653 -0.62891,0.90558 -1.4585,1.36499z" fill="#000000"/>
  <path id="svg_93" d="m1611.88281,816.62744c-2.55798,0.04584 -5.11584,0.09174 -8.09717,0.15625c-0.5,-1.47705 -0.64367,-2.97266 -0.64367,-4.46832c0.00134,-110.09876 0.01404,-220.19751 0.54431,-330.79135c31.13977,-0.54981 61.76111,-0.6095 92.38245,-0.65546c7.01464,-0.01053 7.02441,0.01126 7.02502,7.2197c0.00366,39.94384 -0.02502,79.88769 0.08032,119.8313c0.00537,2.04119 1.14563,4.0794 1.75757,6.11907c33.02344,0.00696 66.04712,0.01392 99.91602,-0.11834c1.23815,-2.18292 1.96997,-4.22602 1.97338,-6.27027c0.06751,-40.14984 0.13831,-80.3001 -0.05822,-120.44906c-0.02515,-5.13373 1.56775,-6.47696 6.55127,-6.43936c28.31994,0.21341 56.64221,0.0997 84.96374,0.10577c6.86475,0.00146 6.8805,0.01627 6.88111,6.90482c0.00439,54.64383 0.00366,109.28769 0.00122,163.93148c-0.00037,7.39826 -0.00867,7.40723 -7.40491,7.40741c-89.1294,0.00208 -178.25879,0.00129 -267.38819,0.00214c-1.66589,0.00006 -3.33459,-0.04932 -4.99731,0.02515c-8.4602,0.37854 -12.40539,4.39831 -12.40771,12.70874c-0.0127,45.64758 0.01001,91.29522 -0.05432,136.94275c-0.00379,2.61297 -0.6681,5.22509 -1.02491,7.83758z" fill="#FFFFFF"/>
  <path id="svg_94" d="m1612.34705,816.73865c-0.10743,-2.7237 0.55688,-5.33582 0.56067,-7.94879c0.06433,-45.64753 0.04162,-91.29517 0.05432,-136.94275c0.00232,-8.31043 3.94751,-12.3302 12.40771,-12.70874c1.66272,-0.07447 3.33142,-0.02509 4.99731,-0.02515c89.1294,-0.00085 178.25879,-0.00006 267.38819,-0.00214c7.39624,-0.00018 7.40454,-0.00915 7.40491,-7.40741c0.00244,-54.64379 0.00317,-109.28765 -0.00122,-163.93148c-0.00061,-6.88855 -0.01636,-6.90336 -6.88111,-6.90482c-28.32153,-0.00607 -56.6438,0.10764 -84.96374,-0.10577c-4.98352,-0.0376 -6.57642,1.30563 -6.55127,6.43936c0.19653,40.14896 0.12573,80.29922 0.05822,120.44906c-0.00341,2.04425 -0.73523,4.08735 -1.51171,6.21839c-0.34192,-42.24194 -0.30054,-84.57135 -0.25745,-126.90073c0.00757,-7.39834 0.01062,-7.4046 7.21265,-7.40518c29.66467,-0.00235 59.32959,0.07584 88.99341,-0.08612c4.24499,-0.02316 5.74035,0.95407 5.72814,5.5148c-0.15222,56.99564 -0.06787,113.99185 -0.10461,170.98788c-0.0343,53.1604 -0.14075,106.32081 -0.60266,160.01642c-2.5398,0.63465 -4.69238,0.81763 -6.84509,0.82105c-31.07691,0.04901 -62.15381,0.07397 -93.33143,-0.1626c-0.43176,-0.72748 -0.76269,-1.18768 -1.0935,-1.64789c0.10632,-9.61425 0.29333,-19.22839 0.30224,-28.84271c0.0188,-20.07721 -0.05651,-40.1546 -0.0808,-61.14063c0.05126,-13.0462 -0.14026,-25.19097 0.2406,-37.31774c0.15722,-5.00635 -1.6598,-6.05298 -6.29114,-6.02442c-29.76404,0.1839 -59.53003,0.09375 -89.29529,0.09363c-1.61743,0 -3.23474,0 -5.12085,0c0,14.83813 0,29.06811 0,43.29804c-0.10034,11.97283 -0.25537,23.94561 -0.28845,35.91864c-0.04993,18.13922 -0.01502,36.2788 0.02099,54.8302c-2.10046,0.61059 -4.23828,0.97888 -6.37646,0.9823c-28.43616,0.0454 -56.87219,0.03955 -85.77258,-0.0647z" fill="#BBD0FF"/>
  <path id="svg_95" d="m2175.71777,642.10913c0.12354,1.31842 0.3545,2.63684 0.35498,3.95532c0.01783,55.45148 0.01661,110.9029 0.00513,166.35437c-0.00024,1.16053 -0.14233,2.32105 -0.74829,3.9065c-33.0918,0.38495 -65.65356,0.34497 -98.27344,0.04284c-0.61377,-0.6662 -1.16919,-1.07037 -1.72485,-1.47448c-0.06445,-1.82868 -0.18457,-3.65729 -0.18482,-5.48596c-0.00879,-96.48432 -0.00805,-192.96863 -0.00805,-289.45295c0,-1.95508 0,-3.91021 0,-6.40954c3.05176,0 5.50732,0 8.39917,0.61615c0.43554,38.41748 0.42944,76.21869 0.4375,114.01995c0.00195,10.17811 3.62573,13.80359 13.81177,13.82136c25.97705,0.04535 51.95385,0.0722 77.9309,0.10644z" fill="#FEFFFF"/>
  <path id="svg_96" d="m2310.69507,642.10986c0.11474,1.32007 0.3291,2.6402 0.32959,3.96027c0.0166,55.44934 0.01538,110.89868 0.00464,166.34802c0,1.16101 -0.13452,2.32196 -0.73047,3.9068c-33.66626,0.43469 -66.80835,0.44556 -99.95044,0.45642c-0.07617,-0.40735 -0.15234,-0.81463 -0.26099,-1.95569c-0.01391,-55.9179 0.00147,-111.10205 0.03443,-166.28625c0.00122,-2.15308 0.17309,-4.30609 0.7102,-6.45288c33.58399,0.0119 66.72339,0.01758 99.86304,0.02331z" fill="#FFFFFF"/>
  <path id="svg_97" d="m1940.16272,816.50476c-0.00562,-52.22534 -0.01111,-104.45068 0.52209,-157.11157c10.16492,-0.38464 19.79151,-0.26093 29.41748,-0.29932c15.93055,-0.0636 31.86072,-0.23163 48.04969,-0.36322c0.71899,0.21973 1.17944,0.44696 1.63977,0.67413c5.50598,5.73896 10.79553,11.70936 16.59631,17.13288c3.68555,3.44604 5.27796,7.00726 5.25671,12.14789c-0.17382,41.98516 -0.06445,83.97149 -0.27709,126.63232c-2.16968,0.94751 -4.10303,1.45282 -6.03736,1.45728c-23.58935,0.05462 -47.17895,0.0614 -70.76843,0.02179c-8.13318,-0.01368 -16.26611,-0.19013 -24.39917,-0.29218z" fill="#BCD0FF"/>
  <path id="svg_98" d="m2310.83228,641.65137c-33.27686,0.45276 -66.41626,0.44708 -100.11646,-0.02588c-0.57642,-29.04291 -0.57568,-57.61859 -0.62207,-86.19428c-0.0105,-6.47039 -0.18579,-12.94049 -0.28516,-19.41076c0,-7.28107 0,-14.56214 0,-22.6156c8.68604,0 16.6399,0.37005 24.54151,-0.11579c6.44848,-0.39654 11.06347,1.46161 15.70337,6.2414c19.21362,19.79345 38.95605,39.073 58.36181,58.68212c1.44703,1.46222 2.48877,4.02802 2.50684,6.09144c0.16797,18.96167 0.06885,37.92553 -0.08984,57.34735z" fill="#BBD0FF"/>
  <path id="svg_99" d="m2175.86377,641.65259c-26.12305,0.4223 -52.09985,0.39545 -78.0769,0.3501c-10.18604,-0.01777 -13.80982,-3.64325 -13.81177,-13.82136c-0.00806,-37.80126 -0.00196,-75.60247 0.00415,-113.88433c7.64087,-0.60712 15.27783,-0.84992 22.91089,-0.75623c1.42822,0.01758 3.13183,1.08966 4.21655,2.16913c20.86182,20.76007 41.68652,41.55786 62.37427,62.49072c1.44092,1.45813 2.46069,4.02643 2.47876,6.08905c0.16723,18.96747 0.07031,37.93726 -0.09595,57.36292z" fill="#BBD0FF"/>
  <path id="svg_100" d="m2017.89331,658.73816c-15.9303,0.12408 -31.86047,0.29211 -47.79102,0.35571c-9.62597,0.03839 -19.25256,-0.08532 -29.3258,-0.16778c-0.4939,-36.50965 -0.54273,-72.98767 -0.57324,-109.46576c-0.00049,-0.63019 0.22119,-1.26056 0.44409,-2.45166c32.85168,0 65.60901,0 98.82519,0.55505c0.47254,22.49469 0.48645,44.43439 0.03943,66.45435c-21.63781,0.08026 -42.81469,0.08026 -65.39428,0.08026c15.30029,15.60235 29.53796,30.12109 43.77563,44.63983z" fill="#FEFEFF"/>
  <path id="svg_101" d="m2210.06616,817.11352c33.42432,-0.34301 66.56641,-0.35388 100.15601,-0.33721c0.88452,1.41266 1.68652,2.79437 1.70019,4.18371c0.09937,10.32587 0.23316,20.65802 -0.02832,30.97852c-0.19458,7.68194 -0.85327,8.06012 -8.47851,8.06067c-28.98218,0.00201 -57.96509,-0.08509 -86.94629,0.09082c-4.4895,0.02716 -6.82105,-0.88452 -6.7478,-5.8869c0.18017,-12.25019 0.06103,-24.5047 0.34472,-37.08961z" fill="#0652FE"/>
  <path id="svg_102" d="m1940.12427,817.00745c8.17151,-0.40064 16.30444,-0.22419 24.43762,-0.21051c23.58948,0.03961 47.17908,0.03283 70.76843,-0.02179c1.93433,-0.00446 3.86768,-0.50977 6.14478,-1.03119c0.39978,12.88873 0.38501,26.02716 0.55603,39.16321c0.05212,4.00585 -1.82056,5.13879 -5.50281,5.13043c-30.43652,-0.06958 -60.87366,-0.08533 -91.31006,0.02142c-3.81665,0.01337 -5.34582,-1.14184 -5.27942,-5.12933c0.20752,-12.47058 0.12,-24.94599 0.18543,-37.92224z" fill="#0350FF"/>
  <path id="svg_103" d="m1806.203,816.92114c31.07691,-0.03064 62.15381,-0.0556 93.23072,-0.10461c2.15271,-0.00342 4.30529,-0.1864 6.89929,-0.39899c0.51208,12.8512 0.54956,25.8158 0.6759,38.7796c0.03259,3.34699 -1.38232,4.82325 -4.76819,4.81873c-30.75512,-0.04108 -61.51049,-0.05737 -92.26538,0.02026c-4.09485,0.01038 -5.03906,-2.03564 -5.00989,-5.6184c0.09876,-12.13501 0.03736,-24.27137 0.33863,-36.91077c0.50048,-0.53095 0.6997,-0.55835 0.89892,-0.58582z" fill="#004EFF"/>
  <path id="svg_104" d="m2077.1145,816.63025c32.56153,0.04004 65.12329,0.08002 98.13452,0.14587c0.87061,1.0788 1.6753,2.13941 1.6543,3.1836c-0.24365,12.27331 -0.52319,24.54821 -1.09595,36.80853c-0.052,1.11774 -2.07934,2.33411 -3.4143,3.12598c-0.74195,0.44006 -1.94849,0.10443 -2.9458,0.10449c-29.08887,0.00152 -58.17798,0.00659 -87.26685,-0.0025c-7.02832,-0.0022 -7.17773,-0.15607 -7.17578,-7.35987c0.00317,-11.63537 0.03613,-23.27069 0.42309,-35.36499c0.8064,-0.51965 1.24659,-0.58038 1.68677,-0.64111z" fill="#0551FF"/>
  <path id="svg_105" d="m1705.24805,725.05579c-0.4845,-14.21351 -0.4845,-28.44349 -0.4845,-43.28162c1.88611,0 3.50342,0 5.12085,0c29.76526,0.00012 59.53125,0.09027 89.29529,-0.09363c4.63134,-0.02856 6.44836,1.01807 6.29114,6.02442c-0.38086,12.12677 -0.18934,24.27154 -0.36414,36.86419c-33.21521,0.46015 -66.29468,0.46515 -99.85864,0.48664z" fill="#0551FE"/>
  <path id="svg_106" d="m2018.15198,658.73065c-14.49634,-14.51123 -28.73401,-29.02997 -44.0343,-44.63232c22.57959,0 43.75647,0 65.69018,-0.02118c1.21936,-0.38428 1.68189,-0.74732 2.14441,-1.11041c0.01343,12.64923 -0.10254,25.30065 0.10999,37.94653c0.07543,4.48816 -1.41516,6.47119 -6.04395,6.14471c-3.64355,-0.25689 -7.33044,-0.21276 -10.97668,0.02558c-1.66224,0.10876 -3.27283,1.00854 -5.07837,1.93536c-0.63184,0.15869 -1.09229,-0.06854 -1.81128,-0.28827z" fill="#0652FF"/>
  <path id="svg_107" d="m1704.87024,613.57056c-0.55054,-1.5716 -1.6908,-3.60981 -1.69617,-5.651c-0.10534,-39.94361 -0.07666,-79.88746 -0.08032,-119.8313c-0.00061,-7.20844 -0.01038,-7.23023 -7.02502,-7.2197c-30.62134,0.04596 -61.24268,0.10565 -92.31165,0.19837c0.90515,-0.47617 2.25684,-1.43534 3.61108,-1.43906c30.8086,-0.08466 61.6178,0.02838 92.4253,-0.16431c4.66345,-0.02914 4.96289,2.07797 4.95862,5.74533c-0.04895,42.63114 0.0194,85.26242 0.11816,128.36167z" fill="#BBD0FF"/>
  <path id="svg_108" d="m2209.61084,536.3794c0.29712,6.11132 0.47241,12.58142 0.48291,19.05181c0.04639,28.57569 0.04565,57.15137 0.17773,86.18805c0.02344,2.61408 -0.14843,4.76709 -0.14965,6.92017c-0.03296,55.1842 -0.04834,110.36835 -0.18238,166.0108c-0.39673,-1.48804 -0.92285,-3.43426 -0.92382,-5.38074c-0.03736,-89.1607 -0.03101,-178.32147 -0.00782,-267.48217c0.00049,-1.64972 0.26441,-3.29932 0.60303,-5.30792z" fill="#0652FE"/>
  <path id="svg_109" d="m2041.8811,612.50305c-0.39135,0.82678 -0.85388,1.18982 -1.6123,1.49378c-0.30982,-21.99872 -0.32373,-43.93842 -0.34204,-66.33338c0.60962,1.37885 1.74438,3.20923 1.75769,5.04779c0.14355,19.77527 0.11035,39.55194 0.19665,59.79181z" fill="#BCD0FF"/>
  <path id="svg_110" d="m1806.10229,816.65393c-0.09851,0.29468 -0.29773,0.32208 -0.79565,0.38965c-0.41101,-0.53613 -0.52344,-1.11243 -0.4668,-1.86316c0.49976,0.28583 0.83069,0.74603 1.26245,1.47351z" fill="#0551FE"/>
  <path id="svg_111" d="m2077.05615,816.36816c-0.38183,0.32282 -0.82202,0.38355 -1.60205,0.42047c-0.35718,-0.45263 -0.37451,-0.88153 -0.25732,-1.60266c0.69018,0.11182 1.2456,0.51599 1.85937,1.18219z" fill="#BBD0FF"/>
  <path id="svg_112" d="m423.57111,590.01965c-0.13642,-13.29193 -0.25544,-26.5841 -0.42176,-39.87561c-0.04049,-3.23748 2.09766,-3.20556 4.3902,-3.20166c12.6441,0.02167 25.2883,0.00824 37.93246,0.00824c17.80164,-0.00006 35.60438,0.1059 53.40415,-0.07763c4.05945,-0.04181 5.53033,1.08374 5.43781,5.30969c-0.26966,12.3053 -0.14283,24.61938 -0.74732,37.38495c-33.71579,0.45398 -66.85568,0.453 -99.99554,0.45202z" fill="#0350FF"/>
  <path id="svg_113" d="m423.56836,725.01123c-0.13535,-13.41266 -0.34454,-26.8258 -0.25739,-40.237c0.0065,-1.00726 2.07224,-2.77704 3.27661,-2.86395c4.78513,-0.34534 9.60831,-0.16315 14.87684,-0.24195c25.53763,-0.00598 50.61572,0.05524 75.69384,0.11188c7.06196,0.01593 7.07642,0.00971 7.06647,6.93585c-0.01703,11.7959 -0.05432,23.5918 -0.6582,35.84327c-33.71619,0.45434 -66.85721,0.45312 -99.99817,0.4519z" fill="#024FFF"/>
  <path id="svg_114" d="m423.4303,590.46753c33.28067,-0.4469 66.42056,-0.44592 100.02337,-0.4408c0.56,6.4914 0.46924,12.98896 0.82459,19.4621c0.21252,3.87122 -1.31226,4.75671 -4.90979,4.71997c-15.82205,-0.1618 -31.6467,-0.06866 -47.47043,-0.0683c-14.15805,0.00031 -28.31613,0.00006 -42.47418,0.00006c-1.80728,0 -3.61456,0 -6.13437,0c0,-8.03497 0,-15.63006 0.14081,-23.67303z" fill="#0148EA"/>
  <path id="svg_115" d="m423.41296,725.45532c33.29636,-0.44287 66.43738,-0.44165 100.04139,-0.43738c0.55926,6.49195 0.47387,12.99054 0.81988,19.46613c0.20783,3.8913 -1.38757,4.73437 -4.95587,4.71014c-20.15848,-0.13702 -40.31833,-0.06756 -60.47772,-0.0628c-4.99805,0.00122 -9.99607,0.02344 -15.45285,0.15777c-5.74338,0.05622 -11.03321,-0.17633 -16.31064,-0.01165c-3.11624,0.09729 -4.02613,-1.12586 -3.95319,-4.04492c0.16101,-6.44147 0.10257,-12.88849 0.289,-19.77729z" fill="#0148EA"/>
  <path id="svg_116" d="m1366.91675,752.68323c-0.82678,0.32232 -1.53186,0.3233 -2.58924,0.31598c0.66883,-0.21796 1.68995,-0.42768 2.58924,-0.31598z" fill="#0551FE"/>
  <path id="svg_117" d="m728.68652,922.90594c0.0943,7.32612 0.14484,14.65314 0.30481,21.97779c0.06287,2.87793 -0.97509,4.28113 -4.04962,4.27148c-19.32965,-0.06048 -38.65997,-0.08661 -57.98926,0.02191c-3.70019,0.02076 -4.66803,-2.08117 -4.67981,-5.00701c-0.02734,-6.81867 0.14191,-13.63813 0.89118,-20.81122c22.2807,-0.38703 43.90167,-0.41999 65.5227,-0.45295z" fill="#B53000"/>
  <path id="svg_118" d="m728.75415,922.44946c-21.68866,0.48944 -43.30963,0.5224 -65.41046,0.54071c-0.50397,-4.49939 -0.42212,-8.98803 -0.58893,-13.46747c-0.11444,-3.07458 0.80896,-4.51415 4.19989,-4.49481c19.26935,0.10993 38.53998,0.11176 57.80927,-0.00293c3.41998,-0.02038 4.29809,1.46491 4.17798,4.51258c-0.16358,4.14697 -0.09131,8.30316 -0.18775,12.91192z" fill="#922600"/>
  <path id="svg_119" d="m862.51221,949.6416c0.84283,-0.59619 2.1408,-1.56311 3.44342,-1.56933c19.59802,-0.09345 39.19671,-0.07245 58.79498,-0.02039c0.92255,0.00244 1.84357,0.54511 2.96796,1.11365c-13.11707,0.40234 -26.43665,0.56677 -39.75659,0.63769c-8.33045,0.04431 -16.66169,-0.05212 -25.44977,-0.16162z" fill="#B63100"/>
 </g>
</svg>